<?xml version="1.0" encoding="UTF-8"?>
<svg version="1.1" xmlns="http://www.w3.org/2000/svg" width="1024" height="1024">
<path d="M0 0 C337.92 0 675.84 0 1024 0 C1024 337.92 1024 675.84 1024 1024 C686.08 1024 348.16 1024 0 1024 C0 686.08 0 348.16 0 0 Z " fill="#FEFEFE" transform="translate(0,0)"/>
<path d="M0 0 C2 1 2 1 2.65429688 2.68310547 C2.93370117 3.76422607 2.93370117 3.76422607 3.21875 4.8671875 C3.42886719 5.6715625 3.63898438 6.4759375 3.85546875 7.3046875 C4.17451172 8.57699219 4.17451172 8.57699219 4.5 9.875 C4.81904297 11.08929688 4.81904297 11.08929688 5.14453125 12.328125 C5.80008409 14.87794402 6.40855436 17.43458348 7 20 C7.19489014 20.8142041 7.38978027 21.6284082 7.59057617 22.46728516 C9.2725643 30.36368183 9.33827708 38.24181624 9.31567383 46.27685547 C9.31253322 48.6004217 9.33598275 50.92268564 9.36132812 53.24609375 C9.41954121 66.45111214 8.83682898 80.78546242 2.25 92.5625 C1.89929443 93.2217749 1.54858887 93.8810498 1.18725586 94.56030273 C-6.28302375 108.17067676 -17.87023595 116.46596246 -32.54296875 121.125 C-40.97262536 123.50102756 -49.31047111 124.98242805 -58 126 C-46.22843643 126.30431591 -34.78333344 126.52226069 -23.23071289 123.97924805 C-19.84165221 123.24055715 -17.30059042 122.73825531 -14 124 C-36.34767651 151.03165921 -68.61104174 160.07385599 -102.3125 163.375 C-104.87435857 163.59261673 -107.43687063 163.7975681 -110 164 C-105.14771965 164.05021865 -100.29559739 164.08609757 -95.44311523 164.10986328 C-93.79953367 164.11979235 -92.15596914 164.13334011 -90.51245117 164.15087891 C-76.59867815 164.2954155 -63.29167795 163.38388008 -49.75 159.875 C-42.34308511 158 -42.34308511 158 -39 158 C-40.53924114 162.2489469 -42.66558107 166.0252565 -45 169.875 C-45.33644531 170.4421875 -45.67289062 171.009375 -46.01953125 171.59375 C-49.58757403 177.51947475 -53.46668869 183.24130254 -57.31542969 188.98632812 C-59.49406734 192.23879199 -61.65720823 195.50111201 -63.81256104 198.76904297 C-65.49177593 201.31471548 -67.17576086 203.85721731 -68.85986328 206.3996582 C-69.70849702 207.68276228 -70.55548369 208.96695712 -71.40087891 210.25219727 C-76.59799819 218.1493902 -81.96396744 225.70844446 -88 233 C-88.91791607 234.1865345 -89.83484237 235.37383666 -90.75 236.5625 C-103.27477092 250.79519423 -123.41730757 258.87053284 -142.07861328 260.22314453 C-161.40895195 261.12690798 -178.8816441 258.79890401 -197 252 C-187.23863598 257.10886974 -177.59180446 261.81884371 -167 265 C-165.43958984 265.47953125 -165.43958984 265.47953125 -163.84765625 265.96875 C-154.89600735 268.22494155 -146.00140404 268.28715265 -136.8125 268.3125 C-135.54148437 268.31805908 -134.27046875 268.32361816 -132.9609375 268.3293457 C-125.12212296 268.26969812 -117.68387402 267.5574577 -110 266 C-119.22103831 283.80614294 -131.99553466 301.0054225 -145.74609375 315.5703125 C-147.36741254 317.31807729 -148.9146974 319.13558867 -150.41015625 320.9921875 C-161.81042841 334.23232259 -177.82596526 341.31449356 -195 343 C-202.99054228 343.55917199 -210.99298287 343.81847819 -219 344 C-217.74896484 344.16435547 -217.74896484 344.16435547 -216.47265625 344.33203125 C-209.65182443 345.29304192 -203.4547682 346.59313728 -197 349 C-197 349.33 -197 349.66 -197 350 C-197.63389648 350.01981934 -198.26779297 350.03963867 -198.92089844 350.06005859 C-215.56913333 350.50464531 -215.56913333 350.50464531 -232 353 C-230.35736819 354.64263181 -228.24487618 354.46574739 -226.03564453 354.79760742 C-211.83276545 357.01381185 -199.64146453 362.15152922 -189 372 C-192.64507938 372 -194.99830127 370.92631539 -198.375 369.5625 C-216.20205783 362.37020426 -237.19078719 364.82748874 -255 371 C-255.66 371.33 -256.32 371.66 -257 372 C-255.80503906 372.04898437 -254.61007812 372.09796875 -253.37890625 372.1484375 C-237.69869427 372.86147381 -237.69869427 372.86147381 -230 375 C-230 375.33 -230 375.66 -230 376 C-230.98097656 376.08636719 -231.96195312 376.17273438 -232.97265625 376.26171875 C-246.70453732 377.62873214 -258.8379398 381.27509612 -271 388 C-270.45472656 387.80664062 -269.90945313 387.61328125 -269.34765625 387.4140625 C-268.59355469 387.15367187 -267.83945312 386.89328125 -267.0625 386.625 C-265.96615234 386.24214844 -265.96615234 386.24214844 -264.84765625 385.8515625 C-246.31145969 380.30850235 -228.28383926 381.58919811 -211.0625 390.375 C-206.58586866 393.03885097 -202.77440726 396.4312825 -199 400 C-199.33 400.66 -199.66 401.32 -200 402 C-200.46148437 401.62488281 -200.92296875 401.24976563 -201.3984375 400.86328125 C-215.3883685 389.88699151 -228.70059184 388.21116166 -246 389 C-246.33 389.33 -246.66 389.66 -247 390 C-245.96552734 390.14695312 -245.96552734 390.14695312 -244.91015625 390.296875 C-231.4186243 392.44367569 -220.70705936 398.29287346 -212 409 C-209.19467175 413.41103406 -206.80321765 418.09474361 -205 423 C-205.33 423.99 -205.66 424.98 -206 426 C-206.3403125 425.31035156 -206.680625 424.62070312 -207.03125 423.91015625 C-212.79070557 412.74355223 -219.19408832 404.94118875 -231 400 C-246.49127103 395.86559159 -261.41039126 400.51184825 -275 408 C-274.33613281 407.84660156 -273.67226563 407.69320313 -272.98828125 407.53515625 C-262.75373215 405.70230236 -253.6129131 405.8948068 -244.25 410.625 C-243.59539795 410.95556396 -242.9407959 411.28612793 -242.26635742 411.62670898 C-237.81016896 414.09115579 -235.05151014 416.93520214 -232 421 C-235.78990783 419.57878456 -239.29166466 417.83307775 -242.83984375 415.90234375 C-251.15679347 412.42817488 -262.40471769 412.77109079 -270.8125 415.625 C-279.08563452 419.09437899 -287.84961464 424.49581861 -293 432 C-294.20519338 435.27891725 -295.09423878 438.628148 -296 442 C-296.48405211 443.63537231 -296.97227374 445.2695168 -297.46484375 446.90234375 C-300.00813528 455.54629942 -302.37150078 464.17162905 -304.1875 473 C-304.35088867 473.78205811 -304.51427734 474.56411621 -304.68261719 475.36987305 C-305.39888975 478.85117925 -306.04877266 482.31445532 -306.59375 485.828125 C-307.5829653 491.52912895 -308.34151337 495.10120665 -313.0625 498.6875 C-313.8565625 499.2134375 -314.650625 499.739375 -315.46875 500.28125 C-323.60515933 505.80597238 -329.28376167 513.38883793 -334.40625 521.62890625 C-336 524 -336 524 -338 525 C-336.52627951 514.57397744 -334.10800208 504.37866695 -331.72509766 494.13134766 C-330.96854527 490.86416218 -330.22343915 487.59451811 -329.48046875 484.32421875 C-328.96626115 482.07028619 -328.45194035 479.81637945 -327.9375 477.5625 C-327.58800293 476.02021729 -327.58800293 476.02021729 -327.23144531 474.44677734 C-324.10543805 460.82631712 -320.29952717 447.40662811 -316.375 434 C-315.78014841 431.96168716 -315.18577818 429.92323439 -314.59146118 427.88476562 C-314.05831638 426.05706973 -313.52406976 424.22969535 -312.98974609 422.40234375 C-312.66312988 421.27957031 -312.33651367 420.15679688 -312 419 C-311.44046631 417.13408203 -311.44046631 417.13408203 -310.86962891 415.23046875 C-309.94883309 411.80992686 -309.70803414 410.27298018 -311 407 C-315.27046384 401.48972408 -321.19762007 397.65823286 -328.15527344 396.70458984 C-338.13099837 395.8921339 -346.50221479 396.26529833 -355 402 C-356.32449634 402.6840553 -357.65543233 403.35629199 -359 404 C-354.12756873 397.75329324 -348.65712959 392.55237653 -341 390 C-328.79164288 388.80761884 -320.42990732 390.37001318 -310 397 C-309.67 397.33 -309.34 397.66 -309 398 C-310.20456418 391.75816742 -311.98662255 385.88072136 -314.03955078 379.86523438 C-315.87557503 374.45520829 -317.48865576 369.00099704 -319.01953125 363.49609375 C-319.70138256 361.06479128 -320.40907093 358.64064747 -321.13671875 356.22265625 C-321.50410156 354.99417969 -321.87148438 353.76570313 -322.25 352.5 C-322.58515625 351.3965625 -322.9203125 350.293125 -323.265625 349.15625 C-324.00282905 345.98784112 -324.13662621 343.23999292 -324 340 C-321.64290591 343.53564114 -320.44831032 347.20848906 -319.0625 351.1875 C-315.07740954 362.36245858 -310.08228703 373.0412812 -305.01220703 383.7578125 C-301.15707799 392.29749053 -303.45270295 399.55872784 -306.125 408.0625 C-306.77241651 410.19443845 -307.4168734 412.32727757 -308.05859375 414.4609375 C-308.38456543 415.54342773 -308.71053711 416.62591797 -309.04638672 417.74121094 C-310.54428811 422.8599994 -311.87051649 428.01972005 -313.1875 433.1875 C-314.75426371 439.32558185 -316.38010398 445.40397573 -318.3125 451.4375 C-319.76923278 455.99507891 -320.62604657 460.23209381 -321 465 C-316.05 465.33 -311.1 465.66 -306 466 C-305.89945313 464.93136719 -305.79890625 463.86273437 -305.6953125 462.76171875 C-304.96655625 456.97610507 -303.40995791 451.42809851 -301.875 445.8125 C-301.5658667 444.67135742 -301.2567334 443.53021484 -300.93823242 442.35449219 C-298.71227114 434.270116 -296.24546482 426.29599918 -293.48583984 418.37817383 C-291.91982836 413.87128906 -290.53154416 409.35992561 -289.26953125 404.7578125 C-286.43817635 394.72324717 -282.88283691 384.9391891 -279.375 375.125 C-279.01829224 374.12455658 -278.66158447 373.12411316 -278.29406738 372.09335327 C-272.97147211 357.19154695 -267.4771636 342.4452872 -261 328 C-260.33701904 326.50339844 -260.33701904 326.50339844 -259.66064453 324.9765625 C-235.08040768 269.69022622 -203.87621804 217.31629709 -162.609375 172.828125 C-160.24695274 170.26765536 -157.93208205 167.67270232 -155.625 165.0625 C-147.63676034 156.1707431 -139.15402698 147.69005576 -130 140 C-129.071875 139.19433594 -128.14375 138.38867188 -127.1875 137.55859375 C-119.42064178 130.84249562 -111.35923218 124.60054855 -103.08154297 118.52832031 C-101.06053777 117.04444832 -99.04778218 115.54989444 -97.03515625 114.0546875 C-77.10488069 99.35845758 -56.31859655 85.59472642 -35 73 C-70.13899929 87.02923605 -102.10830957 104.76580116 -132 128 C-132.81082031 128.6290625 -133.62164062 129.258125 -134.45703125 129.90625 C-146.88952567 139.70763494 -158.52561526 150.17281961 -169.6965332 161.38085938 C-171.68771883 163.37521918 -173.69194816 165.35579957 -175.69726562 167.3359375 C-182.93651217 174.54110075 -189.60858591 181.90909648 -195.75366211 190.07177734 C-197.69188398 192.59835414 -199.69235855 194.93581204 -201.875 197.25 C-246.10141594 246.07957352 -276.53043134 315.36347467 -297 377 C-297.66 376.67 -298.32 376.34 -299 376 C-313.56577332 328.16012067 -289.71533022 276.47937932 -268 235 C-261.67430119 223.13900695 -254.871839 211.5505379 -248 200 C-246.86567185 203.40298444 -247.13022143 204.04647917 -248.25 207.3125 C-251.82726283 218.55018544 -253.46253091 229.32612074 -253.28125 241.08105469 C-253.24948961 243.15838259 -253.2401999 245.2349508 -253.234375 247.3125 C-253.33851367 254.74221237 -253.33851367 254.74221237 -252 262 C-250.54423629 259.08847258 -250.88071686 256.44566721 -250.8125 253.1875 C-248.99999101 212.76008817 -231.70263739 169.40399307 -205 139 C-204.40058594 138.26910156 -203.80117188 137.53820312 -203.18359375 136.78515625 C-201.83842292 135.14826163 -200.42692625 133.56613857 -199 132 C-198.34 132 -197.68 132 -197 132 C-197.90437951 136.89872234 -199.2272194 141.672071 -200.5390625 146.47265625 C-202.11343871 152.28844898 -203.1235882 157.58083074 -203.31640625 163.61328125 C-203.35830078 164.86044922 -203.40019531 166.10761719 -203.44335938 167.39257812 C-203.48267578 168.68615234 -203.52199219 169.97972656 -203.5625 171.3125 C-203.62727539 173.28186523 -203.62727539 173.28186523 -203.69335938 175.29101562 C-203.79927227 178.52724288 -203.90134885 181.76354458 -204 185 C-203.34 185 -202.68 185 -202 185 C-201.95875 183.741875 -201.9175 182.48375 -201.875 181.1875 C-198.59489275 149.71620073 -178.02785378 119.5818131 -154 100 C-138.42284253 87.71836205 -119.03362167 75.65705164 -100 70 C-97.6640625 70.375 -97.6640625 70.375 -96 71 C-96.433125 72.13888672 -96.433125 72.13888672 -96.875 73.30078125 C-97.24625 74.29464844 -97.6175 75.28851563 -98 76.3125 C-98.37125 77.29863281 -98.7425 78.28476562 -99.125 79.30078125 C-100.15418502 82.00271656 -100.15418502 82.00271656 -100 85 C-99.56171875 84.34515625 -99.1234375 83.6903125 -98.671875 83.015625 C-84.0026694 61.90628036 -63.63673415 51.00093754 -41.62841797 38.67138672 C-24.04568439 28.78656635 -9.29667297 18.50395485 0 0 Z " fill="#0B7ACD" transform="translate(531,214)"/>
<path d="M0 0 C3.5625 0.3125 3.5625 0.3125 5.5625 1.375 C7.16937534 4.48832096 6.24793767 6.94923058 5.5625 10.3125 C4.11962891 13.39868164 4.11962891 13.39868164 2.2890625 16.47265625 C1.6290625 17.59607422 0.9690625 18.71949219 0.2890625 19.87695312 C-0.41100453 21.04324127 -1.11152909 22.20925489 -1.8125 23.375 C-3.17802931 25.67629974 -4.53786471 27.9809177 -5.8984375 30.28515625 C-6.50478027 31.29843994 -7.11112305 32.31172363 -7.73583984 33.35571289 C-9.42470417 36.29026609 -10.95416968 39.26966223 -12.4375 42.3125 C-11.73367188 42.28220703 -11.02984375 42.25191406 -10.3046875 42.22070312 C2.9898685 41.65663906 16.25440388 41.13157422 29.5625 41.3125 C29.8125 46.9375 29.8125 46.9375 27.5625 50.3125 C24.14286596 51.31518958 20.78663781 51.46494211 17.23828125 51.55859375 C13.98543031 51.65137081 10.74004743 51.75731078 7.49047852 51.93334961 C2.38624843 52.20896705 -2.45294561 52.41088131 -7.5234375 51.6953125 C-12.48605604 51.19375436 -16.33656902 51.20576349 -20.4375 54.3125 C-27.21730539 63.16810931 -31.24747082 73.89678798 -35.50854492 84.11669922 C-36.97120826 87.57404325 -38.52561887 90.98855631 -40.078125 94.40625 C-48.71580301 113.54321336 -57.09454655 132.15413137 -58.4375 153.3125 C-50.82403517 149.18179036 -44.65263872 144.32106619 -38.4375 138.3125 C-37.92251953 137.8179834 -37.40753906 137.3234668 -36.87695312 136.81396484 C-29.51991781 129.72155535 -22.66792848 122.43451967 -16.4375 114.3125 C-15.37208984 112.93771484 -15.37208984 112.93771484 -14.28515625 111.53515625 C-10.35402923 106.31561516 -7.188409 101.23815787 -4.640625 95.2109375 C-3.4375 93.3125 -3.4375 93.3125 -1.484375 92.6015625 C-0.80890625 92.50617188 -0.1334375 92.41078125 0.5625 92.3125 C4.46579971 91.0114001 5.85934291 88.57126821 8.1875 85.375 C24.72901165 63.37818015 24.72901165 63.37818015 34.84375 60.7109375 C41.10965971 60.29173932 46.35375044 63.06318553 51.5625 66.3125 C54.10656562 68.85656562 53.88830106 69.90501606 53.9375 73.4375 C53.67981972 83.86677044 47.87337992 90.2779368 40.5625 97.3125 C31.5360702 104.80251622 16.68079816 114.3125 4.5625 114.3125 C4.27375 115.199375 3.985 116.08625 3.6875 117 C2.5625 120.3125 2.5625 120.3125 1.51171875 122.578125 C0.34140966 125.94938575 0.26143509 128.81106264 0.25 132.375 C0.22486328 134.18677734 0.22486328 134.18677734 0.19921875 136.03515625 C0.58445288 139.510548 1.066297 140.9100511 3.5625 143.3125 C13.01767949 145.12306628 23.07433673 138.48743722 30.6484375 133.4453125 C44.15703158 123.55832541 55.27135871 111.82251372 65.4921875 98.58984375 C67.5625 96.3125 67.5625 96.3125 70.25 95.00390625 C72.95708579 93.41253921 72.95708579 93.41253921 73.3828125 89.6875 C73.5040337 88.23066903 73.60454272 86.7720099 73.6875 85.3125 C73.82487363 83.76639563 73.96810526 82.22080058 74.1171875 80.67578125 C74.18776367 79.92506348 74.25833984 79.1743457 74.33105469 78.40087891 C75.96429792 63.66378756 83.6005151 50.93097746 94.77734375 41.4296875 C100.25582183 37.20605635 104.38343786 34.44606147 111.5625 35.3125 C114.27652822 36.69623868 115.45392808 37.94678516 117.5625 40.3125 C117.9375 43.625 117.9375 43.625 117.5625 46.3125 C116.28375 46.621875 115.005 46.93125 113.6875 47.25 C104.25044403 50.41550066 97.08884152 58.67259653 92.5625 67.3125 C86.18497588 81.31348838 86.08461498 96.20936919 85.5625 111.3125 C94.22966573 108.54483363 102.41734856 105.10921066 110.625 101.1875 C111.52887451 100.7558252 112.43274902 100.32415039 113.36401367 99.87939453 C116.84363983 98.19575698 120.2191159 96.52517954 123.5078125 94.48828125 C125.5625 93.3125 125.5625 93.3125 128.375 93.625 C129.096875 93.851875 129.81875 94.07875 130.5625 94.3125 C130.46132271 98.5619463 129.8117496 100.06185405 126.7734375 103.1171875 C121.76563718 107.22265273 116.01798006 109.93704753 110.25 112.8125 C103.16378482 116.38317216 96.21625004 119.99471483 89.49926758 124.22851562 C87.5625 125.3125 87.5625 125.3125 85.5625 125.3125 C85.59730469 125.84875 85.63210938 126.385 85.66796875 126.9375 C86.37519271 147.41331758 78.77024859 170.76389253 65.7109375 186.55078125 C61.40935841 191.12713081 56.95875095 194.33702624 50.50390625 194.74609375 C49.04437017 194.76317203 47.58456697 194.76419561 46.125 194.75 C45.39990234 194.76998047 44.67480469 194.78996094 43.92773438 194.81054688 C38.37488308 194.80555779 35.15079453 193.43347191 30.5625 190.3125 C25.77397468 185.19373156 24.97927826 179.33291485 25.13671875 172.5546875 C26.63194161 161.16904554 35.06488305 152.42887939 42.5625 144.3125 C43.25601562 143.5596875 43.94953125 142.806875 44.6640625 142.03125 C52.1539571 134.2639519 60.70557862 127.69968887 69.6640625 121.72265625 C71.68540646 120.44280836 71.68540646 120.44280836 72.5625 118.3125 C72.79279956 115.94126754 72.97369942 113.56508057 73.125 111.1875 C73.20878906 109.90617188 73.29257812 108.62484375 73.37890625 107.3046875 C73.43949219 106.31726563 73.50007813 105.32984375 73.5625 104.3125 C72.9025 104.3125 72.2425 104.3125 71.5625 104.3125 C71.33949219 104.84359375 71.11648438 105.3746875 70.88671875 105.921875 C69.10583761 109.13691705 66.76913632 111.79707408 64.375 114.5625 C63.87524658 115.14459229 63.37549316 115.72668457 62.8605957 116.32641602 C61.86875342 117.48032928 60.87523026 118.63280028 59.87988281 119.78369141 C58.83438792 120.99697699 57.80162442 122.22123132 56.7734375 123.44921875 C32.11985245 152.59102056 32.11985245 152.59102056 14.54589844 154.53564453 C6.30312268 155.12494204 -1.56573452 155.43263899 -8.4375 150.3125 C-12.69123873 145.07712926 -13.57855098 141.16078262 -13.5 134.5625 C-13.49097656 133.57765625 -13.48195313 132.5928125 -13.47265625 131.578125 C-13.45525391 130.45664062 -13.45525391 130.45664062 -13.4375 129.3125 C-16.88299961 132.70589375 -20.21007762 136.18799725 -23.50048828 139.73168945 C-29.27087614 145.94473926 -35.09864601 152.09707882 -41.0625 158.125 C-41.62960693 158.70499756 -42.19671387 159.28499512 -42.78100586 159.88256836 C-47.65280337 164.76601915 -51.165697 167.68214077 -58.41796875 167.72265625 C-59.12566406 167.71105469 -59.83335937 167.69945312 -60.5625 167.6875 C-61.27792969 167.69910156 -61.99335937 167.71070313 -62.73046875 167.72265625 C-67.91162035 167.69360306 -67.91162035 167.69360306 -70.3671875 165.9140625 C-74.1909694 160.19234506 -73.24407718 151.90406065 -72.4375 145.3125 C-70.69312111 137.15617104 -68.06614703 129.21974293 -65.4375 121.3125 C-64.99204834 119.96671875 -64.99204834 119.96671875 -64.53759766 118.59375 C-63.84155636 116.49866978 -63.14016721 114.40536727 -62.4375 112.3125 C-63.5925 112.93125 -64.7475 113.55 -65.9375 114.1875 C-71.94344457 117.17986108 -77.65438051 118.65165597 -84.4375 118.3125 C-84.68242188 119.00730469 -84.92734375 119.70210937 -85.1796875 120.41796875 C-91.26611893 134.42432182 -102.259968 144.78056891 -115.7421875 151.453125 C-119.29136633 152.58474724 -122.68713594 152.6806516 -126.375 152.6875 C-127.06529297 152.71199219 -127.75558594 152.73648438 -128.46679688 152.76171875 C-133.63386636 152.79110493 -136.45832449 151.52846615 -140.4375 148.3125 C-146.06995827 142.4240209 -147.72744637 137.51987216 -147.5625 129.4375 C-147.54445313 128.28507813 -147.52640625 127.13265625 -147.5078125 125.9453125 C-147.48460937 125.07648438 -147.46140625 124.20765625 -147.4375 123.3125 C-149.95357552 125.77956106 -152.30588444 128.29546326 -154.5625 131 C-161.51298373 138.9625456 -169.17324793 147.3105342 -180.0625 148.8125 C-184.15581596 148.20608282 -186.27837468 146.95734911 -189.4375 144.3125 C-193.67391852 138.06631297 -191.96753473 127.95800604 -190.92578125 120.79296875 C-188.40044883 109.61991264 -184.19694323 98.86864757 -180.23510742 88.13842773 C-179.99408295 87.47875 -179.75305847 86.81907227 -179.50473022 86.1394043 C-178.84072305 84.32404258 -178.16925516 82.51141478 -177.49731445 80.69897461 C-176.41189478 77.23068244 -175.85139517 73.91766175 -175.4375 70.3125 C-196.30456895 82.39343466 -209.88961953 108.75075374 -221.9296875 128.73828125 C-222.31382812 129.37516373 -222.69796875 130.0120462 -223.09375 130.66822815 C-225.00370246 133.83782612 -226.90438664 137.01241612 -228.79003906 140.1965332 C-229.48750214 141.36286956 -230.18508749 142.52913282 -230.8828125 143.6953125 C-231.49656738 144.73059082 -232.11032227 145.76586914 -232.74267578 146.83251953 C-234.4375 149.3125 -234.4375 149.3125 -237.4375 151.3125 C-239.9375 151.6875 -239.9375 151.6875 -242.4375 151.3125 C-245.72843467 148.04535522 -245.92601556 145.21534754 -246 140.6875 C-245.82733724 123.85699158 -236.89226973 108.02316312 -230.05636597 93.06764221 C-228.17374666 88.94593191 -226.31963318 84.81242144 -224.48118591 80.67082214 C-223.1367595 77.64422272 -221.784426 74.6211925 -220.43087769 71.59866333 C-219.77271525 70.12537507 -219.11734297 68.65083696 -218.46487427 67.17501831 C-217.54776363 65.10355083 -216.61905386 63.03766082 -215.6875 60.97265625 C-215.15640625 59.78293213 -214.6253125 58.59320801 -214.078125 57.36743164 C-212.47845805 54.38876609 -211.03751918 52.45291 -208.4375 50.3125 C-205.5385415 49.81755587 -204.11948467 49.92604202 -201.5625 51.375 C-199.75941085 54.4803202 -200.7399088 56.85820732 -201.4375 60.3125 C-202.41825079 63.07870102 -203.6218913 65.71917961 -204.859375 68.37890625 C-205.2012384 69.1348558 -205.54310181 69.89080536 -205.89532471 70.66966248 C-206.98430292 73.07537429 -208.08485011 75.47552744 -209.1875 77.875 C-214.07725998 88.55658883 -218.72393839 99.15715045 -222.4375 110.3125 C-219.45101955 107.40891581 -216.72239373 104.555228 -214.30859375 101.16015625 C-213.75453857 100.39034424 -213.2004834 99.62053223 -212.62963867 98.82739258 C-212.05060791 98.01810303 -211.47157715 97.20881348 -210.875 96.375 C-189.0462549 66.36083551 -189.0462549 66.36083551 -175.4375 60.3125 C-171.09983366 59.71420119 -169.24722991 59.78441528 -165.5625 62.1875 C-162.77311597 64.97688403 -162.2318956 66.59352291 -162.0625 70.4375 C-162.16109219 78.11673608 -164.96812259 85.135594 -167.4375 92.3125 C-168.36083338 95.03597952 -169.27981644 97.76085432 -170.19506836 100.48706055 C-170.79927047 102.28221814 -171.40914618 104.0754797 -172.02563477 105.86645508 C-174.7321548 113.83714506 -176.57122033 121.44136573 -177.0625 129.875 C-177.13726562 131.09316406 -177.21203125 132.31132813 -177.2890625 133.56640625 C-177.33804688 134.47261719 -177.38703125 135.37882813 -177.4375 136.3125 C-167.35899746 130.1047267 -158.92983672 122.44658381 -151.4375 113.3125 C-151.01243164 112.81041016 -150.58736328 112.30832031 -150.14941406 111.79101562 C-143.37459633 103.78399014 -137.59395724 95.56831575 -132.24462891 86.54711914 C-127.61443525 78.79370485 -122.99530852 71.61659489 -114.125 68.5 C-110.74720759 67.00748707 -108.10584455 64.91929335 -105.20703125 62.65234375 C-100.98899734 59.45855649 -96.550245 59.74529254 -91.4375 60.3125 C-87.01447332 62.56574001 -83.72072357 65.60835033 -80.4375 69.3125 C-79.96828125 69.79589844 -79.4990625 70.27929688 -79.015625 70.77734375 C-73.87696976 77.14292511 -74.59864583 85.30445591 -75.16748047 93.05908203 C-75.80428839 98.37349176 -77.4718853 103.34581285 -79.4375 108.3125 C-67.24047629 104.16111951 -67.24047629 104.16111951 -56.4375 97.3125 C-55.7775 97.3125 -55.1175 97.3125 -54.4375 97.3125 C-54.08945312 96.136875 -54.08945312 96.136875 -53.734375 94.9375 C-52.04771818 90.22298938 -49.87831742 85.81027164 -47.6875 81.3125 C-43.70999432 73.06453807 -39.93621363 64.77483582 -36.4375 56.3125 C-37.45585938 56.5290625 -38.47421875 56.745625 -39.5234375 56.96875 C-47.44049067 58.56141813 -55.16277849 59.62763161 -63.25 59.6875 C-64.00780762 59.70103516 -64.76561523 59.71457031 -65.54638672 59.72851562 C-69.77801561 59.69408881 -72.37932731 59.34659259 -75.4375 56.3125 C-75.1875 53.9375 -75.1875 53.9375 -74.4375 51.3125 C-67.93160839 47.15226999 -58.69675068 47.36058198 -51.19921875 46.91796875 C-50.08893311 46.84771484 -48.97864746 46.77746094 -47.8347168 46.70507812 C-45.59384524 46.56980453 -43.35164806 46.45476612 -41.10864258 46.36132812 C-34.97003623 46.01337689 -34.97003623 46.01337689 -29.54296875 43.3828125 C-26.5969768 39.08680198 -24.15202449 34.61800442 -21.75 30 C-17.96589176 22.88960515 -14.1000176 15.88315219 -9.8125 9.0625 C-9.39911377 8.40209717 -8.98572754 7.74169434 -8.55981445 7.0612793 C-4.32059989 0.39278181 -4.32059989 0.39278181 0 0 Z " fill="#060808" transform="translate(673.4375,404.6875)"/>
<path d="M0 0 C2.35709409 3.53564114 3.55168968 7.20848906 4.9375 11.1875 C8.92259046 22.36245858 13.91771297 33.0412812 18.98779297 43.7578125 C22.84292201 52.29749053 20.54729705 59.55872784 17.875 68.0625 C17.22758349 70.19443845 16.5831266 72.32727757 15.94140625 74.4609375 C15.61543457 75.54342773 15.28946289 76.62591797 14.95361328 77.74121094 C13.45571189 82.8599994 12.12948351 88.01972005 10.8125 93.1875 C9.24573629 99.32558185 7.61989602 105.40397573 5.6875 111.4375 C4.23076722 115.99507891 3.37395343 120.23209381 3 125 C7.95 125.33 12.9 125.66 18 126 C18.14308594 124.41832031 18.14308594 124.41832031 18.2890625 122.8046875 C19.04614627 116.76661239 20.75609782 110.97846862 22.375 105.125 C22.67921875 104.00480469 22.9834375 102.88460937 23.296875 101.73046875 C25.10093407 95.12329515 26.99374228 88.54858821 29 82 C29.33 82.66 29.66 83.32 30 84 C31.485 84.495 31.485 84.495 33 85 C34.91874836 83.57540725 36.49700745 81.94035942 38.18359375 80.25 C40 79 40 79 42.22265625 79.3125 C42.80917969 79.539375 43.39570313 79.76625 44 80 C43.16855469 80.72445312 42.33710938 81.44890625 41.48046875 82.1953125 C40.38238136 83.17139018 39.28474909 84.14798005 38.1875 85.125 C37.64029297 85.599375 37.09308594 86.07375 36.52929688 86.5625 C29.68625417 92.70050194 28.07826665 99.86198272 26 108.5625 C25.60373413 110.1853894 25.60373413 110.1853894 25.19946289 111.84106445 C23.91626843 117.11633127 22.6587962 122.39754273 21.4375 127.6875 C21.09912109 129.12029297 21.09912109 129.12029297 20.75390625 130.58203125 C20.12144396 133.44941208 19.56563654 136.31341416 19.02734375 139.19921875 C15.82128207 155.48612489 15.82128207 155.48612489 10.8125 159.1875 C9.20854441 160.12536108 7.60436834 161.06284516 6 162 C-0.72021085 167.82556978 -5.73607057 174.11642499 -10.40625 181.62890625 C-12 184 -12 184 -14 185 C-12.52627951 174.57397744 -10.10800208 164.37866695 -7.72509766 154.13134766 C-6.96854527 150.86416218 -6.22343915 147.59451811 -5.48046875 144.32421875 C-4.96626115 142.07028619 -4.45194035 139.81637945 -3.9375 137.5625 C-3.70450195 136.53431152 -3.47150391 135.50612305 -3.23144531 134.44677734 C-0.10543805 120.82631712 3.70047283 107.40662811 7.625 94 C8.21985159 91.96168716 8.81422182 89.92323439 9.40853882 87.88476562 C9.94168362 86.05706973 10.47593024 84.22969535 11.01025391 82.40234375 C11.50017822 80.71818359 11.50017822 80.71818359 12 79 C12.37302246 77.75605469 12.74604492 76.51210938 13.13037109 75.23046875 C14.05116691 71.80992686 14.29196586 70.27298018 13 67 C8.72953616 61.48972408 2.80237993 57.65823286 -4.15527344 56.70458984 C-14.13099837 55.8921339 -22.50221479 56.26529833 -31 62 C-32.32449634 62.6840553 -33.65543233 63.35629199 -35 64 C-30.12756873 57.75329324 -24.65712959 52.55237653 -17 50 C-4.79164288 48.80761884 3.57009268 50.37001318 14 57 C14.33 57.33 14.66 57.66 15 58 C13.79543582 51.75816742 12.01337745 45.88072136 9.96044922 39.86523438 C8.12442497 34.45520829 6.51134424 29.00099704 4.98046875 23.49609375 C4.29861744 21.06479128 3.59092907 18.64064747 2.86328125 16.22265625 C2.49589844 14.99417969 2.12851563 13.76570312 1.75 12.5 C1.41484375 11.3965625 1.0796875 10.293125 0.734375 9.15625 C-0.00282905 5.98784112 -0.13662621 3.23999292 0 0 Z " fill="#1178CB" transform="translate(207,554)"/>
<path d="M0 0 C0.66 0 1.32 0 2 0 C2.31453125 1.01320313 2.6290625 2.02640625 2.953125 3.0703125 C3.3849244 4.42203235 3.81724388 5.77358614 4.25 7.125 C4.45496094 7.79015625 4.65992188 8.4553125 4.87109375 9.140625 C6.75662654 14.96863544 8.8510329 20.05180681 14.453125 23.1171875 C15.71086884 23.71985642 16.97681007 24.30568743 18.25 24.875 C19.22453125 25.33519531 19.22453125 25.33519531 20.21875 25.8046875 C21.80554705 26.55141552 23.40186792 27.27784941 25 28 C22.35285814 37.58544 14.29629647 44.84881592 6 50 C1.78389091 52.34923028 -2.13885909 53.84541581 -7 53 C-10.42657499 50.25874001 -12.26255154 48.29676601 -13 44 C-14.35499435 26.962612 -8.08407058 14.423502 0 0 Z " fill="#F9FAFA" transform="translate(551,495)"/>
<path d="M0 0 C-2.11342646 16.5430278 -7.51109661 34.46658136 -20.61328125 45.5 C-24.23194281 47.77424884 -27.75979475 48.3880545 -32 48 C-33.7495249 46.2504751 -33.29609976 43.94468021 -33.375 41.5625 C-33.18200304 28.9880059 -25.32342036 21.49157027 -17 13 C-16.34386719 12.30519531 -15.68773437 11.61039063 -15.01171875 10.89453125 C-4.55008278 0 -4.55008278 0 0 0 Z " fill="#FAFAFA" transform="translate(745,540)"/>
<path d="M0 0 C3.3247242 2.80754488 5.82681027 4.95502896 6.203125 9.3984375 C6.35668319 19.14938266 4.97196869 28.47662511 0 37 C-4.50206145 37.310487 -7.12139144 37.40551164 -11.25 35.5 C-16.69631397 30.54880548 -18.25140402 25.82757576 -18.625 18.5 C-18.44599114 12.98269133 -17.40397356 9.69032745 -13.7109375 5.58984375 C-9.42342171 1.60578227 -6.03537524 -1.15571015 0 0 Z " fill="#F9F9FA" transform="translate(582,476)"/>
<path d="M0 0 C2.35709409 3.53564114 3.55168968 7.20848906 4.9375 11.1875 C8.92259046 22.36245858 13.91771297 33.0412812 18.98779297 43.7578125 C22.84292201 52.29749053 20.54729705 59.55872784 17.875 68.0625 C17.22758349 70.19443845 16.5831266 72.32727757 15.94140625 74.4609375 C15.61543457 75.54342773 15.28946289 76.62591797 14.95361328 77.74121094 C13.4557093 82.86000826 12.12968991 88.01976631 10.8125 93.1875 C8.98774989 100.3254754 7.06309196 107.37768225 4.76171875 114.37890625 C3.93193549 117.23421174 3.4358923 120.06096379 3 123 C1 120 1 120 1.08398438 118.07104492 C2.87843853 110.05186305 5.1682438 102.18797412 7.5 94.3125 C7.90794991 92.92394494 8.31550444 91.53527366 8.72265625 90.14648438 C9.47214905 87.59080905 10.22433143 85.03599042 10.97851562 82.48168945 C11.31560547 81.33273193 11.65269531 80.18377441 12 79 C12.37447266 77.7524292 12.74894531 76.5048584 13.13476562 75.21948242 C14.05230561 71.80537412 14.28967679 70.2671812 13 67 C8.72953616 61.48972408 2.80237993 57.65823286 -4.15527344 56.70458984 C-14.13099837 55.8921339 -22.50221479 56.26529833 -31 62 C-32.32449634 62.6840553 -33.65543233 63.35629199 -35 64 C-30.12756873 57.75329324 -24.65712959 52.55237653 -17 50 C-4.79164288 48.80761884 3.57009268 50.37001318 14 57 C14.33 57.33 14.66 57.66 15 58 C13.79543582 51.75816742 12.01337745 45.88072136 9.96044922 39.86523438 C8.12442497 34.45520829 6.51134424 29.00099704 4.98046875 23.49609375 C4.29861744 21.06479128 3.59092907 18.64064747 2.86328125 16.22265625 C2.49589844 14.99417969 2.12851563 13.76570312 1.75 12.5 C1.41484375 11.3965625 1.0796875 10.293125 0.734375 9.15625 C-0.00282905 5.98784112 -0.13662621 3.23999292 0 0 Z " fill="#0F6EC1" transform="translate(207,554)"/>
<path d="M0 0 C0.99 0.495 0.99 0.495 2 1 C1.19175781 1.73605469 0.38351562 2.47210938 -0.44921875 3.23046875 C-1.52870221 4.21608409 -2.60812612 5.20176465 -3.6875 6.1875 C-4.21794922 6.67025391 -4.74839844 7.15300781 -5.29492188 7.65039062 C-7.84727433 9.98352262 -10.3299355 12.33507614 -12.7578125 14.80078125 C-15 17 -15 17 -17.1875 18 C-19.24307525 18.87969831 -19.24307525 18.87969831 -19.89501953 21.34399414 C-21.08321905 24.20003094 -22.2009331 25.46253905 -24.4921875 27.49609375 C-25.19134277 28.12990967 -25.89049805 28.76372559 -26.61083984 29.41674805 C-27.3580127 30.08359619 -28.10518555 30.75044434 -28.875 31.4375 C-36.0263266 37.98975079 -42.45417112 44.79417741 -48.58837891 52.29443359 C-50.05801181 54.07009175 -51.5603785 55.81270371 -53.07421875 57.55078125 C-53.5758252 58.12997314 -54.07743164 58.70916504 -54.59423828 59.3059082 C-55.53809173 60.39493366 -56.48540768 61.48097297 -57.43701172 62.56323242 C-60.24754078 65.84075976 -62.13102331 69.12582382 -64 73 C-65.64488294 74.68816933 -67.31337542 76.35353315 -69 78 C-71.55244475 81.21551 -73.69527869 84.08583608 -75 88 C-75.556875 88.53625 -76.11375 89.0725 -76.6875 89.625 C-80.0147766 93.04220299 -82.43302462 96.99551841 -85 101 C-85.66 100.67 -86.32 100.34 -87 100 C-72.52587153 77.92493256 -56.56585739 57.18875697 -38.609375 37.828125 C-36.24695274 35.26765536 -33.93208205 32.67270232 -31.625 30.0625 C-23.64671054 21.18181874 -15.1808478 12.64029738 -6 5 C-5.10087891 4.24396484 -5.10087891 4.24396484 -4.18359375 3.47265625 C-2.79421211 2.30892824 -1.39800511 1.15335422 0 0 Z " fill="#1570B2" transform="translate(407,349)"/>
<path d="M0 0 C1.7015625 0.99 1.7015625 0.99 3.4375 2 C3.1075 3.65 2.7775 5.3 2.4375 7 C-1.23930311 8.22560104 -2.17144207 7.28173602 -5.52880859 5.73828125 C-9.23536089 4.39270932 -12.96927824 4.47116973 -16.875 4.5 C-17.71297119 4.50209473 -18.55094238 4.50418945 -19.41430664 4.50634766 C-26.13960224 4.67736847 -30.96045909 6.2194816 -36.5625 10 C-37.88699634 10.6840553 -39.21793233 11.35629199 -40.5625 12 C-30.78217872 -0.53887343 -15.36718012 -6.95825916 0 0 Z " fill="#1572C2" transform="translate(212.5625,606)"/>
<path d="M0 0 C-1.12685342 8.35374004 -7.18802265 14.86829497 -13.65698242 19.88378906 C-23.2744796 27 -23.2744796 27 -28 27 C-26.33301341 23.08826441 -23.72877475 20.02039409 -21 16.8125 C-20.51668213 16.24241211 -20.03336426 15.67232422 -19.53540039 15.08496094 C-6.50882859 0 -6.50882859 0 0 0 Z " fill="#EDEDEC" transform="translate(714,480)"/>
<path d="M0 0 C10.00898086 3.50445681 17.86772359 8.2022748 25.54785156 15.46386719 C25.21785156 16.12386719 24.88785156 16.78386719 24.54785156 17.46386719 C24.08636719 17.08875 23.62488281 16.71363281 23.14941406 16.32714844 C10.6247277 6.50046764 -0.84495496 4.3122098 -16.40869141 3.89257812 C-20.88884569 3.74223158 -24.33587899 3.40550372 -28.45214844 1.46386719 C-31.16101784 1.29588457 -31.16101784 1.29588457 -33.45214844 1.46386719 C-24.72024767 -4.35739999 -9.8009677 -2.95046432 0 0 Z " fill="#1A75C0" transform="translate(306.4521484375,598.5361328125)"/>
<path d="M0 0 C0.58652344 0.226875 1.17304688 0.45375 1.77734375 0.6875 C0.94589844 1.41195312 0.11445313 2.13640625 -0.7421875 2.8828125 C-1.84027489 3.85889018 -2.93790716 4.83548005 -4.03515625 5.8125 C-4.58236328 6.286875 -5.12957031 6.76125 -5.69335938 7.25 C-12.6523164 13.49197357 -14.1611566 20.77236216 -16.22265625 29.625 C-17.77121318 36.25072665 -19.28079993 42.5323661 -22.22265625 48.6875 C-22.55265625 48.6875 -22.88265625 48.6875 -23.22265625 48.6875 C-23.7728826 40.51139021 -22.16599515 33.51258301 -19.91015625 25.6875 C-19.60142578 24.57632813 -19.29269531 23.46515625 -18.97460938 22.3203125 C-17.13922185 15.75155715 -15.20826411 9.21229765 -13.22265625 2.6875 C-12.89265625 3.3475 -12.56265625 4.0075 -12.22265625 4.6875 C-11.23265625 5.0175 -10.24265625 5.3475 -9.22265625 5.6875 C-7.30390789 4.26290725 -5.7256488 2.62785942 -4.0390625 0.9375 C-2.22265625 -0.3125 -2.22265625 -0.3125 0 0 Z " fill="#1D76BE" transform="translate(249.22265625,633.3125)"/>
<path d="M0 0 C0.66 0.33 1.32 0.66 2 1 C1.6376123 1.90540527 1.27522461 2.81081055 0.90185547 3.74365234 C-8.70650256 27.63272249 -8.70650256 27.63272249 -17 52 C-17.66 51.67 -18.32 51.34 -19 51 C-22.19958524 40.4912705 -22.28963897 29.5203001 -22.3125 18.625 C-22.31781738 17.3349707 -22.32313477 16.04494141 -22.32861328 14.71582031 C-22.25799668 5.38699501 -22.25799668 5.38699501 -20 2 C-19.96241577 3.3912207 -19.96241577 3.3912207 -19.92407227 4.81054688 C-19.82836638 8.28460539 -19.7291709 11.7585292 -19.62768555 15.23242188 C-19.58464137 16.72977874 -19.54294799 18.22717513 -19.50268555 19.72460938 C-19.44423502 21.88944356 -19.38076547 24.05408434 -19.31640625 26.21875 C-19.27974854 27.51748047 -19.24309082 28.81621094 -19.20532227 30.15429688 C-18.99182964 34.15303143 -18.542003 38.0343126 -18 42 C-15.33735274 40.66867637 -15.31777839 39.59193514 -14.37890625 36.80859375 C-13.93514648 35.51405273 -13.93514648 35.51405273 -13.48242188 34.19335938 C-13.17884766 33.28392578 -12.87527344 32.37449219 -12.5625 31.4375 C-11.96047274 29.66507995 -11.35761765 27.89294086 -10.75390625 26.12109375 C-10.4614502 25.2585498 -10.16899414 24.39600586 -9.86767578 23.50732422 C-8.64635608 19.97807453 -7.32352321 16.49209476 -6 13 C-5.67 12.01 -5.34 11.02 -5 10 C-4.34 10 -3.68 10 -3 10 C-2.87625 8.72125 -2.7525 7.4425 -2.625 6.125 C-2.25 2.25 -2.25 2.25 0 0 Z " fill="#1572B8" transform="translate(251,539)"/>
<path d="M0 0 C-0.66 0 -1.32 0 -2 0 C-2 0.66 -2 1.32 -2 2 C-2.67804688 2.35191406 -3.35609375 2.70382812 -4.0546875 3.06640625 C-10.73902612 6.61225347 -16.88300334 10.55823716 -23 15 C-24.829686 16.31757979 -26.66294571 17.63021316 -28.5 18.9375 C-29.3146875 19.52402344 -30.129375 20.11054688 -30.96875 20.71484375 C-33 22 -33 22 -35 22 C-35 22.66 -35 23.32 -35 24 C-35.9075 24.474375 -36.815 24.94875 -37.75 25.4375 C-42.35151501 28.06561979 -46.46626503 31.29010085 -50.67578125 34.49609375 C-54.14981351 37.13203263 -57.6934569 39.664519 -61.25 42.1875 C-66.22378257 45.71934069 -71.14310044 49.30875634 -76 53 C-74.4357179 48.60757873 -70.98863401 46.26194293 -67.4375 43.5 C-66.43819458 42.71278564 -66.43819458 42.71278564 -65.41870117 41.90966797 C-58.55107124 36.55459458 -51.448374 31.55124821 -44.29052734 26.59472656 C-41.89810216 24.92905599 -39.52022134 23.24413 -37.14453125 21.5546875 C-28.68673067 15.55293704 -20.15739035 9.6783035 -11.4375 4.0625 C-10.63393066 3.53591797 -9.83036133 3.00933594 -9.00244141 2.46679688 C-8.25784668 1.99435547 -7.51325195 1.52191406 -6.74609375 1.03515625 C-6.09310303 0.6162915 -5.4401123 0.19742676 -4.76733398 -0.23413086 C-3 -1 -3 -1 0 0 Z " fill="#1670B4" transform="translate(486,296)"/>
<path d="M0 0 C-11.9159055 14.41343114 -27.90986036 25.73079154 -46 31 C-48.87890625 31.12890625 -48.87890625 31.12890625 -51 31 C-47.59757929 28.03247517 -44.23666995 27.01263109 -39.9375 25.75 C-29.14496691 22.34719625 -21.19027845 16.59574155 -13.09375 8.72265625 C-11 7 -11 7 -8 7 C-8 6.01 -8 5.02 -8 4 C-10.31 3.67 -12.62 3.34 -15 3 C-12.74829688 0.74829688 -11.67012422 0.48526 -8.625 -0.1875 C-7.85414063 -0.36667969 -7.08328125 -0.54585938 -6.2890625 -0.73046875 C-3.88917728 -1.01304909 -2.28329465 -0.73503321 0 0 Z " fill="#1773BA" transform="translate(517,338)"/>
<path d="M0 0 C10.58505769 0.80711065 20.50692871 6.68533517 28 14 C24.35492062 14 22.00169873 12.92631539 18.625 11.5625 C11.65341509 8.74982609 5.62044859 7.81755856 -1.8125 7.4375 C-2.60076172 7.39431641 -3.38902344 7.35113281 -4.20117188 7.30664062 C-6.13394215 7.20121679 -8.06695026 7.10016906 -10 7 C-10 6.67 -10 6.34 -10 6 C-9.38511719 5.95101562 -8.77023437 5.90203125 -8.13671875 5.8515625 C-7.32847656 5.77679687 -6.52023437 5.70203125 -5.6875 5.625 C-4.88699219 5.55539062 -4.08648437 5.48578125 -3.26171875 5.4140625 C-0.72775559 5.10435574 -0.72775559 5.10435574 2 3 C1.01 2.34 0.02 1.68 -1 1 C-0.67 0.67 -0.34 0.34 0 0 Z " fill="#1678C4" transform="translate(314,572)"/>
<path d="M0 0 C0 0.99 0 1.98 0 3 C-0.63164062 3.31710937 -1.26328125 3.63421875 -1.9140625 3.9609375 C-11.72592551 9.07894097 -20.93040302 15.31068765 -29.25 22.625 C-32 25 -32 25 -34 25 C-34.12375 25.87785156 -34.12375 25.87785156 -34.25 26.7734375 C-35.22273886 29.66125599 -36.6493825 30.71932081 -39 32.625 C-41.95572315 34.94555299 -41.95572315 34.94555299 -44 38 C-44.66 38 -45.32 38 -46 38 C-46.28875 38.598125 -46.5775 39.19625 -46.875 39.8125 C-48 42 -48 42 -50 45 C-50.99 44.67 -51.98 44.34 -53 44 C-37.54700097 25.53117374 -21.14646685 11.50522056 0 0 Z " fill="#1771B7" transform="translate(405,296)"/>
<path d="M0 0 C0.33 0 0.66 0 1 0 C1 1.98 1 3.96 1 6 C1.99 6 2.98 6 4 6 C2.33098804 12.11971052 -0.81354879 17.37006621 -3.875 22.875 C-9.26006965 32.65548772 -14.3509768 42.54599712 -19.21630859 52.59521484 C-19.68504395 53.55250488 -20.1537793 54.50979492 -20.63671875 55.49609375 C-21.04623779 56.34357178 -21.45575684 57.1910498 -21.87768555 58.06420898 C-23 60 -23 60 -25 61 C-24.01 57.37 -23.02 53.74 -22 50 C-21.34 50 -20.68 50 -20 50 C-19.72599365 49.12077881 -19.4519873 48.24155762 -19.16967773 47.33569336 C-18.08471441 44.24158902 -16.82492608 41.51731835 -15.28515625 38.62890625 C-14.76373047 37.64212891 -14.24230469 36.65535156 -13.70507812 35.63867188 C-13.16302734 34.62353516 -12.62097656 33.60839844 -12.0625 32.5625 C-7.20185017 23.43749925 -7.20185017 23.43749925 -3 14 C-2.34 14 -1.68 14 -1 14 C-0.67 9.38 -0.34 4.76 0 0 Z " fill="#1C72B6" transform="translate(281,469)"/>
<path d="M0 0 C-5.72300758 2.91688774 -11.47285042 5.76180177 -17.28515625 8.49609375 C-32.64930419 15.73119408 -48.16318074 23.04720018 -62 33 C-62 32.01 -62 31.02 -62 30 C-60.06665039 28.51708984 -60.06665039 28.51708984 -57.34765625 26.9609375 C-56.35121094 26.38456543 -55.35476563 25.80819336 -54.328125 25.21435547 C-53.25046875 24.60736816 -52.1728125 24.00038086 -51.0625 23.375 C-49.97324219 22.75125488 -48.88398438 22.12750977 -47.76171875 21.48486328 C-38.94368342 16.46247345 -30.04293273 11.60526373 -21 7 C-20.3282373 6.65461182 -19.65647461 6.30922363 -18.96435547 5.95336914 C-15.08316701 3.97883401 -11.21955779 2.18961114 -7.125 0.6875 C-6.19945312 0.34074219 -5.27390625 -0.00601562 -4.3203125 -0.36328125 C-2 -1 -2 -1 0 0 Z " fill="#1772B6" transform="translate(489,289)"/>
<path d="M0 0 C7.95376614 2.10231704 13.77517618 8.05167678 18.19775391 14.83789062 C20.46958813 18.74395709 22.49526071 22.73282887 24 27 C23.67 27.99 23.34 28.98 23 30 C22.48953125 28.96552734 22.48953125 28.96552734 21.96875 27.91015625 C17.17690024 18.6195752 11.82900019 10.99479048 2.46875 5.97265625 C1.74171875 5.49119141 1.74171875 5.49119141 1 5 C1 4.34 1 3.68 1 3 C0.34 3 -0.32 3 -1 3 C-0.67 2.01 -0.34 1.02 0 0 Z " fill="#126AB5" transform="translate(302,610)"/>
<path d="M0 0 C9.41362353 -0.83883774 17.18654336 -0.73325968 25.75 3.625 C26.40419922 3.95564453 27.05839844 4.28628906 27.73242188 4.62695312 C32.18991642 7.08993918 34.94836838 9.93504032 38 14 C34.98633724 12.86987646 32.35756816 11.62622147 29.5625 10 C23.80176817 7.02528684 17.36130231 6.67901542 11 6 C11 5.34 11 4.68 11 4 C12.65 3.67 14.3 3.34 16 3 C16 2.34 16 1.68 16 1 C10.72 1 5.44 1 0 1 C0 0.67 0 0.34 0 0 Z " fill="#247FC6" transform="translate(261,621)"/>
<path d="M0 0 C0.66 0 1.32 0 2 0 C-0.30977565 9.62645629 -2.86298983 19.16324185 -5.5625 28.6875 C-7.94048165 37.08266713 -10.21628518 45.45515662 -12 54 C-14 51 -14 51 -13.91381836 49.06445312 C-12.13274372 41.11380394 -9.87166409 33.31005238 -7.5625 25.5 C-7.16302878 24.13683083 -6.76393813 22.77355009 -6.36523438 21.41015625 C-4.27251744 14.26476797 -2.15170311 7.12784763 0 0 Z " fill="#6298BA" transform="translate(222,623)"/>
<path d="M0 0 C1.67495462 2.51243193 2.61469199 4.38429777 3.62109375 7.16796875 C3.91693359 7.97943359 4.21277344 8.79089844 4.51757812 9.62695312 C4.82115234 10.47193359 5.12472656 11.31691406 5.4375 12.1875 C6.04015982 13.84773059 6.64302249 15.50788757 7.24609375 17.16796875 C7.68284424 18.37525635 7.68284424 18.37525635 8.12841797 19.60693359 C9.39368909 23.08093571 10.69526107 26.54064632 12 30 C11.01 30.33 10.02 30.66 9 31 C9 31.66 9 32.32 9 33 C9.66 33 10.32 33 11 33 C10.34 34.32 9.68 35.64 9 37 C7.78840506 32.8984532 6.58009887 28.79601179 5.37890625 24.69140625 C4.5258323 21.77807823 3.65982033 18.86939014 2.77734375 15.96484375 C2.41769531 14.75957031 2.05804688 13.55429687 1.6875 12.3125 C1.19830078 10.69794922 1.19830078 10.69794922 0.69921875 9.05078125 C-0.01613267 5.9296111 -0.12914507 3.19036152 0 0 Z " fill="#2979B9" transform="translate(207,554)"/>
<path d="M0 0 C0.66 0 1.32 0 2 0 C0.53330959 3.4583016 -1.37521139 5.47057772 -4.125 8 C-8.68548138 12.42049891 -12.01382477 17.22211963 -15.37109375 22.59375 C-17 25 -17 25 -19 26 C-18.68853528 24.10399631 -18.37578283 22.20820413 -18.0625 20.3125 C-17.88847656 19.25675781 -17.71445313 18.20101562 -17.53515625 17.11328125 C-17.06832879 14.39750396 -16.55577384 11.69875765 -16 9 C-14 12 -14 12 -14.375 14.1875 C-14.58125 14.785625 -14.7875 15.38375 -15 16 C-14.34 16 -13.68 16 -13 16 C-12.67 14.68 -12.34 13.36 -12 12 C-11.34 12 -10.68 12 -10 12 C-9.90589844 11.40703125 -9.81179687 10.8140625 -9.71484375 10.203125 C-8.84054781 7.50857359 -7.73279682 6.53677244 -5.5625 4.75 C-4.94503906 4.22921875 -4.32757813 3.7084375 -3.69140625 3.171875 C-2 2 -2 2 0 2 C0 1.34 0 0.68 0 0 Z " fill="#1975BB" transform="translate(212,713)"/>
<path d="M0 0 C11.39489442 0.22789789 22.2129521 7.04366845 30 15 C29.67 15.66 29.34 16.32 29 17 C28.53851563 16.62488281 28.07703125 16.24976563 27.6015625 15.86328125 C19.37904081 9.41201423 11.38954398 5.48106265 1 4 C0.67 2.68 0.34 1.36 0 0 Z " fill="#1E76BD" transform="translate(302,599)"/>
<path d="M0 0 C-1.33488128 3.59391114 -2.96022723 6.75490696 -5 10 C-5.33 8.68 -5.66 7.36 -6 6 C-5.34 6 -4.68 6 -4 6 C-4 5.34 -4 4.68 -4 4 C-5.0621875 4.28875 -6.124375 4.5775 -7.21875 4.875 C-8.64569849 5.25051276 -10.07278962 5.6254838 -11.5 6 C-12.54414063 6.28617187 -12.54414063 6.28617187 -13.609375 6.578125 C-19.79399438 8.18154484 -25.64587709 8.55902049 -32 7.5 C-33.485 7.2525 -33.485 7.2525 -35 7 C-35 6.67 -35 6.34 -35 6 C-33.67162109 5.85304688 -33.67162109 5.85304688 -32.31640625 5.703125 C-24.23933478 4.72816112 -16.44134943 3.30683367 -8.54907227 1.32128906 C-5.61472601 0.5870953 -3.03913832 0 0 0 Z " fill="#1E74B6" transform="translate(492,372)"/>
<path d="M0 0 C1.13598633 0.00483398 1.13598633 0.00483398 2.29492188 0.00976562 C3.47344727 0.02233398 3.47344727 0.02233398 4.67578125 0.03515625 C5.47306641 0.03966797 6.27035156 0.04417969 7.09179688 0.04882812 C9.05732382 0.06059775 11.0228121 0.07853277 12.98828125 0.09765625 C12.98828125 0.42765625 12.98828125 0.75765625 12.98828125 1.09765625 C5.06828125 1.59265625 5.06828125 1.59265625 -3.01171875 2.09765625 C-3.34171875 3.08765625 -3.67171875 4.07765625 -4.01171875 5.09765625 C-0.38171875 5.09765625 3.24828125 5.09765625 6.98828125 5.09765625 C6.98828125 5.42765625 6.98828125 5.75765625 6.98828125 6.09765625 C6.02148438 6.11183594 5.0546875 6.12601563 4.05859375 6.140625 C-4.52942947 6.45523575 -10.54610018 7.53296375 -18.01171875 12.09765625 C-19.33905925 12.77617627 -20.67060727 13.44677822 -22.01171875 14.09765625 C-16.51564788 7.05141155 -9.50419488 -0.07146011 0 0 Z " fill="#3E8BC3" transform="translate(194.01171875,603.90234375)"/>
<path d="M0 0 C0.66 0.33 1.32 0.66 2 1 C1.61070312 1.54785156 1.22140625 2.09570312 0.8203125 2.66015625 C-5.87325004 12.14527368 -12.40918122 21.72418568 -18.4609375 31.6328125 C-19.04794434 32.59340576 -19.63495117 33.55399902 -20.23974609 34.54370117 C-21.40319236 36.4563681 -22.55990288 38.37315033 -23.70947266 40.29418945 C-24.23847168 41.16519287 -24.7674707 42.03619629 -25.3125 42.93359375 C-25.78300781 43.71790771 -26.25351562 44.50222168 -26.73828125 45.31030273 C-27.36283203 46.14670288 -27.36283203 46.14670288 -28 47 C-28.66 47 -29.32 47 -30 47 C-30 46.34 -30 45.68 -30 45 C-29.34 45 -28.68 45 -28 45 C-27.78214844 44.19304687 -27.56429688 43.38609375 -27.33984375 42.5546875 C-25.62473156 38.00438985 -23.19380009 34.19712207 -20.5625 30.125 C-19.76984741 28.88447876 -19.76984741 28.88447876 -18.96118164 27.61889648 C-12.93184304 18.23982565 -6.77429829 8.86211482 0 0 Z " fill="#186EB1" transform="translate(315,426)"/>
<path d="M0 0 C5.94 0 11.88 0 18 0 C18.33 0.99 18.66 1.98 19 3 C17.02 3 15.04 3 13 3 C13 3.66 13 4.32 13 5 C10.89829344 5.53067341 8.79352402 6.04922857 6.6875 6.5625 C5.51574219 6.85253906 4.34398437 7.14257812 3.13671875 7.44140625 C0 8 0 8 -3 7 C-0.32521756 5.3372974 1.9995144 4.00016187 5 3 C3.35 2.67 1.7 2.34 0 2 C0 1.34 0 0.68 0 0 Z " fill="#076FC0" transform="translate(259,622)"/>
<path d="M0 0 C1.15061758 3.45185274 0.80885186 4.27688781 -0.3125 7.625 C-1.67389436 11.82006588 -2.64165596 15.93856503 -3.375 20.28515625 C-3.58125 20.85105469 -3.7875 21.41695313 -4 22 C-4.99 22.33 -5.98 22.66 -7 23 C-7.33 22.34 -7.66 21.68 -8 21 C-8.66 21 -9.32 21 -10 21 C-9.52195518 15.41991316 -7.35840734 11.74119659 -4.4375 7.125 C-4.01275391 6.43664062 -3.58800781 5.74828125 -3.15039062 5.0390625 C-2.1089225 3.35399048 -1.05564084 1.67622969 0 0 Z " fill="#1672BD" transform="translate(283,414)"/>
<path d="M0 0 C19.00455581 -0.3690205 19.00455581 -0.3690205 27 2 C27 2.33 27 2.66 27 3 C25.98421875 3.09796875 24.9684375 3.1959375 23.921875 3.296875 C16.00595984 4.13343015 8.91860382 5.34222782 1.453125 8.29296875 C-1.18792175 9.05416216 -2.45424143 8.93384134 -5 8 C-0.34507678 4.43122553 4.34849564 4.31824005 10 4 C10 3.01 10 2.02 10 1 C6.7 1 3.4 1 0 1 C0 0.67 0 0.34 0 0 Z " fill="#0D6CB8" transform="translate(274,587)"/>
<path d="M0 0 C0.33 0 0.66 0 1 0 C0.64707989 8.64654269 -0.96725651 16.87453632 -4 25 C-4.66 25.33 -5.32 25.66 -6 26 C-6.70229803 17.5334071 -4.92511533 9.94264893 -2 2 C-1.34 1.34 -0.68 0.68 0 0 Z " fill="#1974BA" transform="translate(232,656)"/>
<path d="M0 0 C0.33 0 0.66 0 1 0 C1.49924425 5.3668757 0.28120809 6.91418262 -3 11 C-4.52145987 13.62673721 -5.85539512 16.33580878 -7.1875 19.0625 C-7.54263672 19.76955078 -7.89777344 20.47660156 -8.26367188 21.20507812 C-9.87571321 24.46280871 -11.20717746 27.43648169 -12 31 C-12.66 31 -13.32 31 -14 31 C-14.66 32.98 -15.32 34.96 -16 37 C-16.66 37 -17.32 37 -18 37 C-16.28777812 31.0422689 -13.47624293 25.69461918 -10.6875 20.1875 C-10.21376953 19.24068359 -9.74003906 18.29386719 -9.25195312 17.31835938 C-6.30673293 11.46418025 -3.2337135 5.69985065 0 0 Z " fill="#1A75BC" transform="translate(268,440)"/>
<path d="M0 0 C2.6877438 0.14209669 5.37513302 0.2885723 8.0625 0.4375 C8.81466797 0.47681641 9.56683594 0.51613281 10.34179688 0.55664062 C13.74213042 0.74800139 17.03701298 1.00577267 20.40625 1.53125 C25.10138671 2.14365914 29.70921431 2.10675321 34.4375 2.0625 C35.82098633 2.05573242 35.82098633 2.05573242 37.23242188 2.04882812 C39.48835048 2.03713938 41.74413967 2.02075455 44 2 C44 2.33 44 2.66 44 3 C37.57654055 4.20084254 31.32880996 4.18396429 24.8125 4.1875 C23.05969727 4.20586914 23.05969727 4.20586914 21.27148438 4.22460938 C13.95860043 4.2368451 7.13831017 3.60151487 0 2 C0 1.34 0 0.68 0 0 Z " fill="#1B77BB" transform="translate(354,470)"/>
<path d="M0 0 C0.33 0 0.66 0 1 0 C0.41366907 6.46768113 -1.66948135 12.13008381 -3.9375 18.1875 C-4.29779297 19.17169922 -4.65808594 20.15589844 -5.02929688 21.16992188 C-6.52393986 25.21894552 -8.00340097 29.16788048 -10 33 C-10.66 33 -11.32 33 -12 33 C-10.06242396 25.13322951 -7.46150544 17.77067077 -4.3125 10.3125 C-3.89677734 9.31283203 -3.48105469 8.31316406 -3.05273438 7.28320312 C-2.04108392 4.8529164 -1.02347054 2.42532672 0 0 Z " fill="#1774BF" transform="translate(249,477)"/>
<path d="M0 0 C-0.68907122 3.65943647 -1.56821266 7.22441959 -2.5625 10.8125 C-2.83191406 11.78832031 -3.10132813 12.76414062 -3.37890625 13.76953125 C-3.58386719 14.50558594 -3.78882813 15.24164063 -4 16 C-4.309375 15.360625 -4.61875 14.72125 -4.9375 14.0625 C-5.8345163 12.06389179 -5.8345163 12.06389179 -7 11 C-8.11375 12.175625 -8.11375 12.175625 -9.25 13.375 C-11.59421977 15.61266433 -13.14324985 16.69370826 -16 18 C-4.76595745 0 -4.76595745 0 0 0 Z " fill="#1871B7" transform="translate(334,346)"/>
<path d="M0 0 C2 1 2 1 2.68603516 2.79418945 C2.88503418 3.55948975 3.0840332 4.32479004 3.2890625 5.11328125 C3.50820313 5.94923828 3.72734375 6.78519531 3.953125 7.64648438 C4.17484375 8.52626953 4.3965625 9.40605469 4.625 10.3125 C4.85445312 11.18068359 5.08390625 12.04886719 5.3203125 12.94335938 C6.32057028 16.82233522 7 19.95371367 7 24 C6.34 24 5.68 24 5 24 C4.32873871 21.5636811 3.66283646 19.12611117 3 16.6875 C2.80921875 15.99720703 2.6184375 15.30691406 2.421875 14.59570312 C1.62283816 11.64212051 1 9.07440781 1 6 C-0.65 6.66 -2.3 7.32 -4 8 C-2.68 5.36 -1.36 2.72 0 0 Z " fill="#2C82C3" transform="translate(531,214)"/>
<path d="M0 0 C0.66 0.33 1.32 0.66 2 1 C-4.37379221 10.34638511 -11.14994631 18.85146518 -19 27 C-19.66 26.67 -20.32 26.34 -21 26 C-17.06319986 20.9847679 -13.0923797 16.04074805 -8.8125 11.3125 C-5.56353223 7.7110801 -2.72871908 4.00780615 0 0 Z " fill="#1973B9" transform="translate(402,505)"/>
<path d="M0 0 C-10.66465221 5.95370828 -23.01803948 6.44838938 -35 6 C-35 5.67 -35 5.34 -35 5 C-33.81241089 4.83395264 -33.81241089 4.83395264 -32.60083008 4.66455078 C-29.00376813 4.15787778 -25.40815719 3.64154372 -21.8125 3.125 C-19.94368164 2.86396484 -19.94368164 2.86396484 -18.03710938 2.59765625 C-16.83505859 2.42363281 -15.63300781 2.24960937 -14.39453125 2.0703125 C-13.28956299 1.91320801 -12.18459473 1.75610352 -11.04614258 1.59423828 C-7.99692028 1.10509207 -7.99692028 1.10509207 -5.2878418 -0.12939453 C-3 -1 -3 -1 0 0 Z " fill="#076EBC" transform="translate(415,467)"/>
<path d="M0 0 C4.86330944 5.90023127 9.3426804 14.9698307 9.5 22.75 C9 26 9 26 7 28 C6.91363281 27.44054687 6.82726562 26.88109375 6.73828125 26.3046875 C5.56176877 19.59101077 3.46240463 13.45979473 1.0234375 7.1015625 C0 4 0 4 0 0 Z " fill="#2274B9" transform="translate(219,585)"/>
<path d="M0 0 C0.66 0.66 1.32 1.32 2 2 C1.27409668 2.08564209 0.54819336 2.17128418 -0.19970703 2.25952148 C-3.50831367 2.65071152 -6.81665718 3.04408534 -10.125 3.4375 C-11.83816406 3.63956055 -11.83816406 3.63956055 -13.5859375 3.84570312 C-15.24882812 4.04389648 -15.24882812 4.04389648 -16.9453125 4.24609375 C-17.96125488 4.36654053 -18.97719727 4.4869873 -20.02392578 4.61108398 C-23.03034934 5.00396608 -26.01248074 5.48390313 -29 6 C-29 5.34 -29 4.68 -29 4 C-19.28088619 0.95086626 -10.27679847 -1.26438436 0 0 Z " fill="#076DBA" transform="translate(313,576)"/>
<path d="M0 0 C0.33 0 0.66 0 1 0 C1.0270043 1.45823212 1.04639787 2.91660675 1.0625 4.375 C1.07410156 5.18710937 1.08570313 5.99921875 1.09765625 6.8359375 C1 9 1 9 0 11 C-0.28794852 12.66334107 -0.5326933 14.33428847 -0.75390625 16.0078125 C-0.95209961 17.48701172 -0.95209961 17.48701172 -1.15429688 18.99609375 C-1.28900391 20.02863281 -1.42371094 21.06117188 -1.5625 22.125 C-1.70107422 23.16527344 -1.83964844 24.20554687 -1.98242188 25.27734375 C-2.32480981 27.8511565 -2.6638618 30.42536483 -3 33 C-3.33 33 -3.66 33 -4 33 C-4.52168987 21.29096066 -3.38443376 11.22604592 0 0 Z " fill="#1170BD" transform="translate(286,435)"/>
<path d="M0 0 C0.66 0 1.32 0 2 0 C0.57091424 3.97920991 -1.33566503 7.23626477 -3.6953125 10.73828125 C-4.76845703 12.33833008 -4.76845703 12.33833008 -5.86328125 13.97070312 C-6.61708665 15.08470367 -7.37099417 16.19863511 -8.125 17.3125 C-8.88714522 18.44567682 -9.64886836 19.57913765 -10.41015625 20.71289062 C-12.26930586 23.4780815 -14.13270814 26.24030379 -16 29 C-17 26 -17 26 -15.6875 23.3125 C-14.8521875 22.1678125 -14.8521875 22.1678125 -14 21 C-13.34 21 -12.68 21 -12 21 C-12 20.01 -12 19.02 -12 18 C-11.34 18 -10.68 18 -10 18 C-10 17.01 -10 16.02 -10 15 C-9.34 15 -8.68 15 -8 15 C-8 14.01 -8 13.02 -8 12 C-7.34 12 -6.68 12 -6 12 C-5.88527344 11.42765625 -5.77054687 10.8553125 -5.65234375 10.265625 C-4.93817644 7.78528344 -3.92692128 5.93631303 -2.5625 3.75 C-2.13066406 3.04359375 -1.69882812 2.3371875 -1.25390625 1.609375 C-0.84011719 1.07828125 -0.42632812 0.5471875 0 0 Z " fill="#1A74BB" transform="translate(475,396)"/>
<path d="M0 0 C0.33 0 0.66 0 1 0 C1.38297872 19.53191489 1.38297872 19.53191489 -1 28 C-1.33 28 -1.66 28 -2 28 C-2.05841253 24.45840343 -2.09373452 20.91693207 -2.125 17.375 C-2.14175781 16.37597656 -2.15851562 15.37695312 -2.17578125 14.34765625 C-2.21014246 9.15911291 -2.10254937 4.85076351 0 0 Z " fill="#0E74C0" transform="translate(539,263)"/>
<path d="M0 0 C0.66 0.33 1.32 0.66 2 1 C-0.12516868 5.25033735 -2.83328081 7.75488065 -6.4765625 10.66796875 C-8.12972374 11.94364001 -8.12972374 11.94364001 -9 14 C-9.66 14 -10.32 14 -11 14 C-11.28875 14.598125 -11.5775 15.19625 -11.875 15.8125 C-13 18 -13 18 -15 21 C-15.99 20.67 -16.98 20.34 -18 20 C-15.94073967 17.60136563 -13.87700888 15.20661763 -11.8125 12.8125 C-11.23435547 12.13896484 -10.65621094 11.46542969 -10.06054688 10.77148438 C-6.83224326 7.03248867 -3.54630184 3.43944529 0 0 Z " fill="#1E78BF" transform="translate(370,320)"/>
<path d="M0 0 C-1.32 1.32 -2.64 2.64 -4 4 C-4 3.34 -4 2.68 -4 2 C-4.99 2.495 -4.99 2.495 -6 3 C-15.98284284 4.60438546 -25.98175723 3.72353976 -36 3 C-36 2.67 -36 2.34 -36 2 C-34.98015015 1.970271 -34.98015015 1.970271 -33.93969727 1.93994141 C-30.81362259 1.84378718 -27.68813527 1.73447934 -24.5625 1.625 C-23.49322266 1.5940625 -22.42394531 1.563125 -21.32226562 1.53125 C-15.61130998 1.32167365 -10.33579614 0.85573024 -4.82006836 -0.68212891 C-3 -1 -3 -1 0 0 Z " fill="#3084C3" transform="translate(421,481)"/>
<path d="M0 0 C0.99 0.33 1.98 0.66 3 1 C-5.72082613 7.09708188 -14.26345847 10.70403551 -25 10 C-25 9.34 -25 8.68 -25 8 C-23.865625 7.84144531 -22.73125 7.68289063 -21.5625 7.51953125 C-13.19125223 6.25391587 -6.98828695 5.03156661 0 0 Z " fill="#1673BD" transform="translate(364,545)"/>
<path d="M0 0 C-0.66 1.65 -1.32 3.3 -2 5 C-2.66 4.67 -3.32 4.34 -4 4 C-4 3.34 -4 2.68 -4 2 C-4.65226562 2.33773438 -5.30453125 2.67546875 -5.9765625 3.0234375 C-18.44359756 9.38567073 -18.44359756 9.38567073 -25 9 C-21.20179997 6.46786665 -17.2128945 4.69248106 -13.0625 2.8125 C-12.25103516 2.43158203 -11.43957031 2.05066406 -10.60351562 1.65820312 C-9.81783203 1.30306641 -9.03214844 0.94792969 -8.22265625 0.58203125 C-7.50859619 0.25436768 -6.79453613 -0.0732959 -6.05883789 -0.41088867 C-3.65245841 -1.09944478 -2.33701471 -0.80617312 0 0 Z " fill="#1B76BF" transform="translate(435,285)"/>
<path d="M0 0 C-0.99 0.33 -1.98 0.66 -3 1 C-0.36 1.33 2.28 1.66 5 2 C5 2.33 5 2.66 5 3 C-4.24 3 -13.48 3 -23 3 C-23 2.67 -23 2.34 -23 2 C-19.91879316 1.4660256 -16.83482141 0.95014449 -13.75 0.4375 C-12.44095703 0.21030273 -12.44095703 0.21030273 -11.10546875 -0.02148438 C-10.26113281 -0.16005859 -9.41679687 -0.29863281 -8.546875 -0.44140625 C-7.77182617 -0.57232666 -6.99677734 -0.70324707 -6.19824219 -0.83813477 C-3.88826153 -1.00822774 -2.19914787 -0.68559092 0 0 Z " fill="#BADBEE" transform="translate(491,338)"/>
<path d="M0 0 C0.33 0 0.66 0 1 0 C1.16983922 5.01025701 1.11595908 8.39467731 -1 13 C-1.34153937 14.66500443 -1.67449498 16.33178677 -2 18 C-2.9375 21.25 -2.9375 21.25 -4 24 C-4.66 24.33 -5.32 24.66 -6 25 C-5.30953941 16.36924256 -2.72919805 8.18759414 0 0 Z " fill="#2C81C4" transform="translate(208,674)"/>
<path d="M0 0 C0.99 0.33 1.98 0.66 3 1 C2.09378906 1.6290625 1.18757813 2.258125 0.25390625 2.90625 C-6.8769142 7.90115556 -13.6637987 12.99904744 -20 19 C-20 15.29029236 -19.3057982 14.87349291 -16.75 12.3125 C-11.7553746 7.50550811 -6.1610367 3.20373908 0 0 Z " fill="#0E6EBA" transform="translate(463,268)"/>
<path d="M0 0 C0.66 0 1.32 0 2 0 C3 3 3 3 2.10375977 4.80932617 C1.63768311 5.46392822 1.17160645 6.11853027 0.69140625 6.79296875 C0.19189453 7.50517578 -0.30761719 8.21738281 -0.82226562 8.95117188 C-1.35529297 9.68916016 -1.88832031 10.42714844 -2.4375 11.1875 C-2.96666016 11.93708984 -3.49582031 12.68667969 -4.04101562 13.45898438 C-5.35161785 15.31271906 -6.67143849 17.15911532 -8 19 C-9.13867188 15.26855469 -9.13867188 15.26855469 -7.890625 12.8515625 C-7.34921875 12.11679687 -6.8078125 11.38203125 -6.25 10.625 C-3.79361931 7.1689295 -1.77427763 3.84426821 0 0 Z " fill="#1674BB" transform="translate(415,483)"/>
<path d="M0 0 C0.33 0.66 0.66 1.32 1 2 C-1.22071533 4.71904579 -3.44297341 7.43679826 -5.66796875 10.15234375 C-7.00719329 11.78767824 -8.34440012 13.42467986 -9.67578125 15.06640625 C-10.76181472 16.39591626 -11.8770161 17.70154987 -13 19 C-13.33 19 -13.66 19 -14 19 C-14 17.35 -14 15.7 -14 14 C-13.4225 13.773125 -12.845 13.54625 -12.25 13.3125 C-8.5530207 11.15592874 -6.5593013 7.96199824 -4.4375 4.3125 C-3 2 -3 2 0 0 Z " fill="#156EB2" transform="translate(334,402)"/>
<path d="M0 0 C0.74958984 0.00451172 1.49917969 0.00902344 2.27148438 0.01367188 C4.11852383 0.02543646 5.96552213 0.04337135 7.8125 0.0625 C7.8125 0.3925 7.8125 0.7225 7.8125 1.0625 C5.1725 1.3925 2.5325 1.7225 -0.1875 2.0625 C0.8025 2.7225 1.7925 3.3825 2.8125 4.0625 C-1.1475 4.0625 -5.1075 4.0625 -9.1875 4.0625 C-9.1875 3.4025 -9.1875 2.7425 -9.1875 2.0625 C-9.8475 1.7325 -10.5075 1.4025 -11.1875 1.0625 C-7.42449626 -0.19183458 -3.91539091 -0.04445422 0 0 Z " fill="#0266B6" transform="translate(199.1875,604.9375)"/>
<path d="M0 0 C0.99 0.33 1.98 0.66 3 1 C-3.26399627 6.22773022 -9.73680288 10.29373306 -17 14 C-15.50194825 9.99050855 -13.23233428 8.59899923 -9.625 6.4375 C-5.59925166 4.01666175 -5.59925166 4.01666175 -1.8359375 1.22265625 C-1.23007812 0.81917969 -0.62421875 0.41570312 0 0 Z " fill="#1171BC" transform="translate(512,238)"/>
<path d="M0 0 C1.75 0.875 1.75 0.875 2.75 2.875 C-2.58333333 5.54166667 -7.91666667 8.20833333 -13.25 10.875 C-4.17118227 -0.23173235 -4.17118227 -0.23173235 0 0 Z " fill="#2374B4" transform="translate(185.25,607.125)"/>
<path d="M0 0 C1 2 1 2 0.0390625 4.8984375 C-0.42757813 6.04570312 -0.89421875 7.19296875 -1.375 8.375 C-3.50438332 13.5870953 -3.50438332 13.5870953 -5 19 C-5.99 19 -6.98 19 -8 19 C-6.21440518 12.04634211 -3.7441867 6.12685097 0 0 Z " fill="#1975BB" transform="translate(343,356)"/>
<path d="M0 0 C1.76171875 0.0703125 1.76171875 0.0703125 4 1 C5.47459684 3.30166613 6.65549015 5.42399816 7.8125 7.875 C8.29879883 8.83212891 8.29879883 8.83212891 8.79492188 9.80859375 C11.13222631 14.60332106 11.13222631 14.60332106 10 18 C9.61328125 17.26394531 9.2265625 16.52789063 8.828125 15.76953125 C6.18845505 10.82341701 3.61534162 6.31059962 0 2 C0 1.34 0 0.68 0 0 Z " fill="#3D84B7" transform="translate(315,622)"/>
<path d="M0 0 C0.66 0.66 1.32 1.32 2 2 C0.44233138 3.44273385 -1.12135957 4.87896708 -2.6875 6.3125 C-3.99267578 7.51326172 -3.99267578 7.51326172 -5.32421875 8.73828125 C-11.5492228 14 -11.5492228 14 -15 14 C-13.8005648 10.40169439 -12.89953512 10.05435099 -9.75 8.125 C-5.98129783 5.7207243 -3.00470294 3.29548064 0 0 Z " fill="#1E76BB" transform="translate(439,448)"/>
<path d="M0 0 C6.04433574 1.35997554 9.63494136 4.85651794 14 9 C10.21286807 9 8.16645599 7.73107406 4.8125 6 C3.72582031 5.443125 2.63914062 4.88625 1.51953125 4.3125 C0.68808594 3.879375 -0.14335937 3.44625 -1 3 C-0.67 2.01 -0.34 1.02 0 0 Z " fill="#2375BA" transform="translate(285,625)"/>
<path d="M0 0 C0.66 0 1.32 0 2 0 C2.66 1.65 3.32 3.3 4 5 C4.33 5 4.66 5 5 5 C5.05395478 6.62463842 5.09277195 8.24978541 5.125 9.875 C5.14820313 10.77992188 5.17140625 11.68484375 5.1953125 12.6171875 C5 15 5 15 3 17 C2.49453964 14.91798472 1.99583165 12.83432933 1.5 10.75 C1.2215625 9.58984375 0.943125 8.4296875 0.65625 7.234375 C0 4 0 4 0 0 Z " fill="#0B67B8" transform="translate(221,602)"/>
<path d="M0 0 C0.99580078 0.59941406 0.99580078 0.59941406 2.01171875 1.2109375 C2.01171875 1.5409375 2.01171875 1.8709375 2.01171875 2.2109375 C0.78195312 2.50097656 0.78195312 2.50097656 -0.47265625 2.796875 C-2.08914063 3.18746094 -2.08914063 3.18746094 -3.73828125 3.5859375 C-4.805625 3.84117187 -5.87296875 4.09640625 -6.97265625 4.359375 C-9.92029965 5.07180254 -9.92029965 5.07180254 -12.12890625 6.375 C-14.47275627 7.4287477 -15.61681325 7.05789036 -17.98828125 6.2109375 C-15.60177447 4.98016042 -13.20711032 3.77679058 -10.80078125 2.5859375 C-10.12724609 2.2353125 -9.45371094 1.8846875 -8.75976562 1.5234375 C-5.44411737 -0.09395189 -3.63846622 -0.96074533 0 0 Z " fill="#CDE7F2" transform="translate(275.98828125,595.7890625)"/>
<path d="M0 0 C6.33393082 -0.34548714 11.10261508 0.70657253 17 3 C17 3.33 17 3.66 17 4 C12.05 4 7.1 4 2 4 C2.99 3.67 3.98 3.34 5 3 C5 2.34 5 1.68 5 1 C3.35 1 1.7 1 0 1 C0 0.67 0 0.34 0 0 Z " fill="#146EB5" transform="translate(317,560)"/>
<path d="M0 0 C-0.33 1.32 -0.66 2.64 -1 4 C-8.38461538 4.49230769 -8.38461538 4.49230769 -11.5 2 C-11.995 1.34 -12.49 0.68 -13 0 C-11.39679026 -0.19551338 -9.79237014 -0.38111983 -8.1875 -0.5625 C-7.29417969 -0.66691406 -6.40085938 -0.77132812 -5.48046875 -0.87890625 C-3 -1 -3 -1 0 0 Z " fill="#0C71C5" transform="translate(210,606)"/>
<path d="M0 0 C0.33 0.99 0.66 1.98 1 3 C-1.62527189 3.05382106 -4.24944713 3.09358313 -6.875 3.125 C-7.62136719 3.14175781 -8.36773437 3.15851563 -9.13671875 3.17578125 C-11.09194461 3.1933959 -13.04742021 3.10320189 -15 3 C-15.66 2.34 -16.32 1.68 -17 1 C-5.47835991 -0.14806378 -5.47835991 -0.14806378 0 0 Z " fill="#CEE5F3" transform="translate(436,376)"/>
<path d="M0 0 C0.99 0.66 1.98 1.32 3 2 C-0.3 4.97 -3.6 7.94 -7 11 C-7.99 10.67 -8.98 10.34 -10 10 C-6.7 6.7 -3.4 3.4 0 0 Z " fill="#1E7BBE" transform="translate(383,371)"/>
<path d="M0 0 C1.97929118 2.96893676 3.02741785 5.51620619 4.1875 8.875 C4.55230469 9.90367187 4.91710937 10.93234375 5.29296875 11.9921875 C6.02892175 15.12303729 5.88524323 16.94393738 5 20 C1.18964906 14.28447359 -0.55570361 6.8536779 0 0 Z " fill="#5C90BA" transform="translate(207,554)"/>
<path d="M0 0 C1.19882812 0.00483398 1.19882812 0.00483398 2.421875 0.00976562 C3.246875 0.01814453 4.071875 0.02652344 4.921875 0.03515625 C5.76234375 0.03966797 6.6028125 0.04417969 7.46875 0.04882812 C9.53648901 0.06057664 11.60419124 0.07851103 13.671875 0.09765625 C13.671875 0.42765625 13.671875 0.75765625 13.671875 1.09765625 C12.88941406 1.15824219 12.10695313 1.21882812 11.30078125 1.28125 C9.78291016 1.40693359 9.78291016 1.40693359 8.234375 1.53515625 C7.22503906 1.61636719 6.21570313 1.69757812 5.17578125 1.78125 C2.73546721 1.82977093 2.73546721 1.82977093 1.671875 3.09765625 C-4.78966346 3.45663061 -4.78966346 3.45663061 -8.328125 1.09765625 C-5.47652109 0.28331482 -2.96186369 -0.02115617 0 0 Z " fill="#D5E8F0" transform="translate(289.328125,601.90234375)"/>
<path d="M0 0 C0.66 0 1.32 0 2 0 C0.52869627 4.3573226 -1.83080615 7.71934134 -4.625 11.3125 C-5.04523438 11.86228516 -5.46546875 12.41207031 -5.8984375 12.97851562 C-6.92720039 14.32292168 -7.9629009 15.66201413 -9 17 C-9.33 16.01 -9.66 15.02 -10 14 C-8.671875 11.9140625 -8.671875 11.9140625 -6.75 9.625 C-4.67147154 7.09192257 -2.86096833 4.76508441 -1.1875 1.9375 C-0.795625 1.298125 -0.40375 0.65875 0 0 Z " fill="#1C76B9" transform="translate(454,428)"/>
<path d="M0 0 C1.43836751 0.11458693 2.87570966 0.24209116 4.3125 0.375 C5.51326172 0.47941406 5.51326172 0.47941406 6.73828125 0.5859375 C9 1 9 1 12 3 C8.49128216 4.91384609 7.18632214 5.04276246 3.1875 4.125 C2.135625 3.75375 1.08375 3.3825 0 3 C0 2.01 0 1.02 0 0 Z " fill="#197DC8" transform="translate(286,605)"/>
<path d="M0 0 C4.45673159 0.49871064 6.57687178 2.02004362 9.8125 5.0625 C10.60269531 5.79597656 11.39289063 6.52945313 12.20703125 7.28515625 C13.09455078 8.13400391 13.09455078 8.13400391 14 9 C13.67 9.66 13.34 10.32 13 11 C12.49210937 10.60167969 11.98421875 10.20335937 11.4609375 9.79296875 C7.46096502 6.71433825 3.63120857 4.08404386 -1 2 C-0.67 1.34 -0.34 0.68 0 0 Z " fill="#3D84BC" transform="translate(318,605)"/>
<path d="M0 0 C1.15477893 3.46433679 0.80148365 4.68112799 -0.1875 8.125 C-0.54908203 9.45917969 -0.54908203 9.45917969 -0.91796875 10.8203125 C-2 13 -2 13 -4.11328125 13.8046875 C-4.73589844 13.86914062 -5.35851562 13.93359375 -6 14 C-5.41892368 10.2397015 -4.34800504 7.46964968 -2.4375 4.1875 C-1.98246094 3.39730469 -1.52742188 2.60710937 -1.05859375 1.79296875 C-0.53458984 0.90544922 -0.53458984 0.90544922 0 0 Z " fill="#3481BB" transform="translate(283,414)"/>
<path d="M0 0 C-2.65642276 2.65642276 -3.98303081 2.99888727 -7.8125 3.25 C-11.59269841 3.10815391 -15.27097263 2.62150456 -19 2 C-19 1.67 -19 1.34 -19 1 C-16.58440932 0.63645961 -14.16805703 0.28389449 -11.75 -0.0625 C-11.06808594 -0.16626953 -10.38617188 -0.27003906 -9.68359375 -0.37695312 C-6.2150075 -0.86524925 -3.33088887 -1.22762141 0 0 Z " fill="#2C83C4" transform="translate(476,377)"/>
<path d="M0 0 C0.66 0.33 1.32 0.66 2 1 C3.1577506 4.47325181 3.06866652 7.36067448 3 11 C2.34 10.34 1.68 9.68 1 9 C1 8.01 1 7.02 1 6 C-0.65 6.66 -2.3 7.32 -4 8 C-2.68 5.36 -1.36 2.72 0 0 Z " fill="#2379BD" transform="translate(531,214)"/>
<path d="M0 0 C0.66 0 1.32 0 2 0 C0.55575365 3.23861303 -1.25772247 5.61969163 -3.625 8.25 C-4.25664062 8.95640625 -4.88828125 9.6628125 -5.5390625 10.390625 C-6.02117187 10.92171875 -6.50328125 11.4528125 -7 12 C-7.66 11.67 -8.32 11.34 -9 11 C-7.68823998 9.35357683 -6.3755713 7.70787757 -5.0625 6.0625 C-4.33160156 5.14597656 -3.60070312 4.22945312 -2.84765625 3.28515625 C-1 1 -1 1 0 0 Z " fill="#0B6BB8" transform="translate(390,520)"/>
<path d="M0 0 C1.98 0.99 1.98 0.99 4 2 C4.28571429 9.42857143 4.28571429 9.42857143 2 13 C0.24252386 8.49646738 -0.19294408 4.82360189 0 0 Z " fill="#D1E9F4" transform="translate(277,465)"/>
<path d="M0 0 C0.66 0.99 1.32 1.98 2 3 C1.1015625 6.13671875 1.1015625 6.13671875 -0.375 9.6875 C-0.85710937 10.86699219 -1.33921875 12.04648437 -1.8359375 13.26171875 C-2.41214844 14.61716797 -2.41214844 14.61716797 -3 16 C-3.66 16 -4.32 16 -5 16 C-4.49228528 10.03435204 -2.61407872 5.36190101 0 0 Z " fill="#1976BF" transform="translate(301,391)"/>
<path d="M0 0 C0.33 0 0.66 0 1 0 C0.67 3.63 0.34 7.26 0 11 C-0.99 10.67 -1.98 10.34 -3 10 C-3.23226952 6.59338044 -3.35720302 4.59016151 -1.5625 1.625 C-0.7890625 0.820625 -0.7890625 0.820625 0 0 Z " fill="#116DB5" transform="translate(232,656)"/>
<path d="M0 0 C-0.33 1.32 -0.66 2.64 -1 4 C-8.42857143 4.28571429 -8.42857143 4.28571429 -12 2 C-10.7625 1.67 -9.525 1.34 -8.25 1 C-7.55390625 0.814375 -6.8578125 0.62875 -6.140625 0.4375 C-4 0 -4 0 0 0 Z " fill="#CEE4F0" transform="translate(308,565)"/>
<path d="M0 0 C0.99 0.33 1.98 0.66 3 1 C-0.96 6.94 -0.96 6.94 -5 13 C-6 10 -6 10 -5.0625 7.8125 C-4.711875 7.214375 -4.36125 6.61625 -4 6 C-3.34 6 -2.68 6 -2 6 C-1.34 4.02 -0.68 2.04 0 0 Z " fill="#1B77BA" transform="translate(483,383)"/>
<path d="M0 0 C0.66 0 1.32 0 2 0 C0.60249952 3.15835107 -1.05198234 5.32272825 -3.5 7.75 C-4.41265625 8.67039062 -4.41265625 8.67039062 -5.34375 9.609375 C-7 11 -7 11 -9 11 C-7.71480435 8.13302508 -6.42870746 6.02392288 -4 4 C-3.34 4 -2.68 4 -2 4 C-1.34 2.68 -0.68 1.36 0 0 Z " fill="#2877B6" transform="translate(362,371)"/>
<path d="M0 0 C-5.39459439 3.08467498 -9.79011871 4.55643705 -16 5 C-13.07880232 2.58152006 -10.5084932 1.31293234 -6.875 0.25 C-6.00617188 -0.01296875 -5.13734375 -0.2759375 -4.2421875 -0.546875 C-2 -1 -2 -1 0 0 Z " fill="#126CB5" transform="translate(482,364)"/>
<path d="M0 0 C1.32 0.66 2.64 1.32 4 2 C3.01 3.485 3.01 3.485 2 5 C2.66 5 3.32 5 4 5 C4 5.66 4 6.32 4 7 C0.7 6.01 -2.6 5.02 -6 4 C-6 3.67 -6 3.34 -6 3 C-4.35 3 -2.7 3 -1 3 C-0.67 2.01 -0.34 1.02 0 0 Z " fill="#1A76C1" transform="translate(299,608)"/>
<path d="M0 0 C0.99 0.33 1.98 0.66 3 1 C-1.88471613 4.86435321 -6.75430616 8.63737574 -12 12 C-10.48091677 8.19800072 -8.22551214 6.22812796 -5.0625 3.6875 C-3.74958984 2.61048828 -3.74958984 2.61048828 -2.41015625 1.51171875 C-1.61480469 1.01285156 -0.81945312 0.51398438 0 0 Z " fill="#0F69AF" transform="translate(422,337)"/>
<path d="M0 0 C0.66 0 1.32 0 2 0 C3.125 6.625 3.125 6.625 2 10 C0.68 9.34 -0.64 8.68 -2 8 C-1.67 6.35 -1.34 4.7 -1 3 C-0.34 3 0.32 3 1 3 C0.67 2.01 0.34 1.02 0 0 Z " fill="#1B70BB" transform="translate(222,613)"/>
<path d="M0 0 C0.66 0.66 1.32 1.32 2 2 C2.99 2.66 3.98 3.32 5 4 C0.70547064 4.19974555 -2.06315038 3.61511779 -6 2 C-8.70886941 1.83201738 -8.70886941 1.83201738 -11 2 C-6.93150591 -0.71232939 -4.83523216 -0.30699887 0 0 Z " fill="#056BBE" transform="translate(284,598)"/>
<path d="M0 0 C-1.98 1.65 -3.96 3.3 -6 5 C-6 4.34 -6 3.68 -6 3 C-8.31 2.67 -10.62 2.34 -13 2 C-13 1.67 -13 1.34 -13 1 C-11.58622218 0.63447197 -10.16879424 0.28304505 -8.75 -0.0625 C-7.96109375 -0.25972656 -7.1721875 -0.45695312 -6.359375 -0.66015625 C-3.89605178 -1.01497267 -2.34395868 -0.76877544 0 0 Z " fill="#2678B6" transform="translate(517,338)"/>
<path d="M0 0 C0.88336837 2.4667645 1.1312406 3.63859372 0.22265625 6.140625 C-0.16019531 6.83671875 -0.54304687 7.5328125 -0.9375 8.25 C-1.31777344 8.95640625 -1.69804688 9.6628125 -2.08984375 10.390625 C-2.39019531 10.92171875 -2.69054687 11.4528125 -3 12 C-3.33 12 -3.66 12 -4 12 C-3.5317879 7.22423661 -2.75668002 3.95523655 0 0 Z " fill="#0F72BC" transform="translate(534,298)"/>
<path d="M0 0 C0.33 0 0.66 0 1 0 C0.88570603 1.77155654 0.75816963 3.54226229 0.625 5.3125 C0.52058594 6.79169922 0.52058594 6.79169922 0.4140625 8.30078125 C0 11 0 11 -2 14 C-2.05437607 12.41705218 -2.09296271 10.83355744 -2.125 9.25 C-2.14820313 8.36828125 -2.17140625 7.4865625 -2.1953125 6.578125 C-1.99139502 3.8864142 -1.36551721 2.30095026 0 0 Z " fill="#076BB3" transform="translate(223,694)"/>
<path d="M0 0 C4.21912747 0.4794463 6.79663178 1.16625119 10 4 C7.8125 4.8125 7.8125 4.8125 5 5 C2.1875 2.5625 2.1875 2.5625 0 0 Z " fill="#146CB4" transform="translate(309,601)"/>
<path d="M0 0 C0 0.66 0 1.32 0 2 C-2.40545638 3.20272819 -3.94996953 3.10071472 -6.625 3.0625 C-7.85089844 3.04896484 -7.85089844 3.04896484 -9.1015625 3.03515625 C-10.04128906 3.01775391 -10.04128906 3.01775391 -11 3 C-11 2.34 -11 1.68 -11 1 C-7.27569643 0.30710631 -3.78916254 -0.11144596 0 0 Z " fill="#096EBA" transform="translate(350,552)"/>
<path d="M0 0 C0.66 0 1.32 0 2 0 C1.45144652 4.571279 0.58255197 8.67435795 -1 13 C-1.33 13 -1.66 13 -2 13 C-1.85851011 11.3954444 -1.71164314 9.79136233 -1.5625 8.1875 C-1.48128906 7.29417969 -1.40007812 6.40085937 -1.31640625 5.48046875 C-1 3 -1 3 0 0 Z " fill="#0B74C1" transform="translate(430,289)"/>
<path d="M0 0 C2.00130916 2.54712074 3.85727656 4.9527375 5 8 C4.625 10.25 4.625 10.25 4 12 C1.21366885 7.82050327 0 5.06624674 0 0 Z " fill="#2A7BBD" transform="translate(219,585)"/>
<path d="M0 0 C0.99 0.33 1.98 0.66 3 1 C0.69 3.64 -1.62 6.28 -4 9 C-4 5.00095031 -2.27413033 3.19799578 0 0 Z " fill="#1673BD" transform="translate(526,313)"/>
<path d="M0 0 C0.33 0 0.66 0 1 0 C1 1.98 1 3.96 1 6 C1.99 6 2.98 6 4 6 C3.34 7.65 2.68 9.3 2 11 C1.34 11 0.68 11 0 11 C0 7.37 0 3.74 0 0 Z " fill="#0767B3" transform="translate(281,469)"/>
<path d="M0 0 C0.33 0 0.66 0 1 0 C1.28571429 8.57142857 1.28571429 8.57142857 -1 12 C-1.92470553 7.28400182 -2.22923777 4.32734391 0 0 Z " fill="#2074B9" transform="translate(208,674)"/>
<path d="M0 0 C0.66 0 1.32 0 2 0 C3.25664978 2.90600261 4 4.79604584 4 8 C3.01 8 2.02 8 1 8 C0.67 5.36 0.34 2.72 0 0 Z " fill="#1968A9" transform="translate(212,571)"/>
<path d="M0 0 C0.66 0 1.32 0 2 0 C1.48964169 4.3890815 0.47785723 7.33708062 -2 11 C-3 9 -3 9 -2.44140625 6.8359375 C-2.15136719 6.02382813 -1.86132812 5.21171875 -1.5625 4.375 C-1.27503906 3.55773437 -0.98757813 2.74046875 -0.69140625 1.8984375 C-0.46324219 1.27195312 -0.23507812 0.64546875 0 0 Z " fill="#0B6AB1" transform="translate(259,519)"/>
<path d="M0 0 C-1.4562545 0.67119549 -2.91507867 1.33681807 -4.375 2 C-5.59316406 2.556875 -5.59316406 2.556875 -6.8359375 3.125 C-9 4 -9 4 -11 4 C-11 3.34 -11 2.68 -11 2 C-9.73392393 1.46770674 -8.46189588 0.94955456 -7.1875 0.4375 C-6.47980469 0.14746094 -5.77210938 -0.14257812 -5.04296875 -0.44140625 C-3 -1 -3 -1 0 0 Z " fill="#1774C1" transform="translate(415,467)"/>
<path d="M0 0 C3.68266103 0.59950296 7.34543185 1.24758891 11 2 C10.34 2.66 9.68 3.32 9 4 C6.8359375 3.7578125 6.8359375 3.7578125 4.375 3.125 C3.55773437 2.92132813 2.74046875 2.71765625 1.8984375 2.5078125 C1.27195312 2.34023438 0.64546875 2.17265625 0 2 C0 1.34 0 0.68 0 0 Z " fill="#1D7EC6" transform="translate(337,465)"/>
<path d="M0 0 C0.99 0 1.98 0 3 0 C2.67 2.64 2.34 5.28 2 8 C1.34 8 0.68 8 0 8 C0 5.36 0 2.72 0 0 Z " fill="#CAE7F5" transform="translate(327,391)"/>
<path d="M0 0 C0.33 0 0.66 0 1 0 C1.56638908 4.81430721 -0.17438373 7.20307814 -3 11 C-4 8 -4 8 -3.22265625 5.95703125 C-2.83980469 5.24933594 -2.45695312 4.54164063 -2.0625 3.8125 C-1.68222656 3.09707031 -1.30195313 2.38164062 -0.91015625 1.64453125 C-0.60980469 1.10183594 -0.30945313 0.55914062 0 0 Z " fill="#0E6CB3" transform="translate(295,491)"/>
<path d="M0 0 C0.66 0 1.32 0 2 0 C1.34 3.3 0.68 6.6 0 10 C-0.66 9.01 -1.32 8.02 -2 7 C-1.125 3.3125 -1.125 3.3125 0 0 Z " fill="#3589C6" transform="translate(536,291)"/>
<path d="M0 0 C-3.18762365 2.12508244 -5.26512223 2.5020163 -9 3 C-9 2.34 -9 1.68 -9 1 C-3.375 -1.125 -3.375 -1.125 0 0 Z " fill="#1271BE" transform="translate(272,614)"/>
<path d="M0 0 C1.98 0.66 3.96 1.32 6 2 C3.42786866 3.61949011 2.32330841 4.04408751 -0.75 3.625 C-1.4925 3.41875 -2.235 3.2125 -3 3 C-2.01 2.01 -1.02 1.02 0 0 Z " fill="#1C7AC6" transform="translate(208,608)"/>
<path d="M0 0 C1.98 0.495 1.98 0.495 4 1 C3.67 2.98 3.34 4.96 3 7 C2.34 6.01 1.68 5.02 1 4 C0.01 4.495 0.01 4.495 -1 5 C-0.67 3.35 -0.34 1.7 0 0 Z " fill="#3686C3" transform="translate(231,653)"/>
<path d="M0 0 C0.33 2.31 0.66 4.62 1 7 C0.01 7.33 -0.98 7.66 -2 8 C-1.67 6.35 -1.34 4.7 -1 3 C-1.66 3 -2.32 3 -3 3 C-3 2.34 -3 1.68 -3 1 C-1 0 -1 0 0 0 Z " fill="#0967B7" transform="translate(219,584)"/>
<path d="M0 0 C3.91402949 1.26941497 5.79072873 2.51167694 8 6 C7.236875 5.690625 6.47375 5.38125 5.6875 5.0625 C3.81210323 4.32106407 1.91315348 3.63771783 0 3 C0 2.01 0 1.02 0 0 Z " fill="#4589BF" transform="translate(334,581)"/>
<path d="M0 0 C2.86724686 0.57344937 3.8614515 0.8614515 6 3 C5.67 3.66 5.34 4.32 5 5 C3.35 4.67 1.7 4.34 0 4 C0 2.66666667 0 1.33333333 0 0 Z " fill="#2376BE" transform="translate(329,578)"/>
<path d="M0 0 C0.66 0 1.32 0 2 0 C1.45276317 3.37462715 0.9451 5.08235 -1 8 C-1.625 5.125 -1.625 5.125 -2 2 C-1.34 1.34 -0.68 0.68 0 0 Z " fill="#2D7FBD" transform="translate(332,346)"/>
</svg>
